<svg width="20" height="20" viewBox="0 0 20 20" fill="none" xmlns="http://www.w3.org/2000/svg">
<path d="M10.0002 2C9.44578 2 8.97087 2.33782 8.76969 2.81901L1.53402 15.2982V15.2995C1.40343 15.5098 1.334 15.7524 1.3335 16C1.3335 16.3536 1.47397 16.6928 1.72402 16.9428C1.97407 17.1929 2.31321 17.3333 2.66683 17.3333C2.69812 17.3331 2.72939 17.3318 2.76058 17.3294L2.76318 17.3333H10.0002H17.2371L17.2397 17.3281C17.2709 17.331 17.3022 17.3327 17.3335 17.3333C17.6871 17.3333 18.0263 17.1929 18.2763 16.9428C18.5264 16.6928 18.6668 16.3536 18.6668 16C18.6666 15.752 18.5971 15.5089 18.4663 15.2982L18.4559 15.2799L18.4546 15.2786L11.2306 2.81901C11.0295 2.33782 10.5545 2 10.0002 2ZM9.19157 7.57292H10.8088L10.6746 11.888H9.32568L9.19157 7.57292ZM10.0028 13.207C10.5508 13.207 10.8791 13.5019 10.8791 14.0052C10.8791 14.4992 10.5508 14.793 10.0028 14.793C9.45077 14.793 9.11996 14.4992 9.11996 14.0052C9.11996 13.5019 9.4501 13.207 10.0028 13.207Z" fill="black"/>
</svg>
