<svg width="21" height="20" viewBox="0 0 21 20" fill="none" xmlns="http://www.w3.org/2000/svg">
<path d="M1.83388 1.3321C1.74554 1.33085 1.65783 1.34717 1.57585 1.38011C1.49387 1.41305 1.41925 1.46196 1.35634 1.52399C1.29343 1.58602 1.24347 1.65994 1.20937 1.74144C1.17527 1.82295 1.15771 1.91041 1.15771 1.99876C1.15771 2.08711 1.17527 2.17458 1.20937 2.25609C1.24347 2.33759 1.29343 2.41151 1.35634 2.47354C1.41925 2.53557 1.49387 2.58447 1.57585 2.61742C1.65783 2.65036 1.74554 2.66668 1.83388 2.66543H3.08648C3.23708 2.66543 3.36275 2.75974 3.40549 2.90501L6.24664 12.5639C6.49599 13.4117 7.28015 13.9988 8.1646 13.9988H15.4823C16.3813 13.9988 17.175 13.3912 17.412 12.5248L19.1438 6.17455C19.1708 6.07562 19.1746 5.9718 19.155 5.87114C19.1354 5.77049 19.0928 5.67573 19.0305 5.59422C18.9683 5.51271 18.8881 5.44666 18.7962 5.4012C18.7043 5.35573 18.6031 5.33209 18.5005 5.3321H5.50966L4.68544 2.52871H4.68414C4.47621 1.82199 3.82255 1.3321 3.08648 1.3321H1.83388ZM8.50054 15.3321C8.14692 15.3321 7.80778 15.4726 7.55773 15.7226C7.30768 15.9727 7.16721 16.3118 7.16721 16.6654C7.16721 17.0191 7.30768 17.3582 7.55773 17.6082C7.80778 17.8583 8.14692 17.9988 8.50054 17.9988C8.85416 17.9988 9.1933 17.8583 9.44335 17.6082C9.6934 17.3582 9.83387 17.0191 9.83387 16.6654C9.83387 16.3118 9.6934 15.9727 9.44335 15.7226C9.1933 15.4726 8.85416 15.3321 8.50054 15.3321ZM15.1672 15.3321C14.8136 15.3321 14.4744 15.4726 14.2244 15.7226C13.9744 15.9727 13.8339 16.3118 13.8339 16.6654C13.8339 17.0191 13.9744 17.3582 14.2244 17.6082C14.4744 17.8583 14.8136 17.9988 15.1672 17.9988C15.5208 17.9988 15.86 17.8583 16.11 17.6082C16.3601 17.3582 16.5005 17.0191 16.5005 16.6654C16.5005 16.3118 16.3601 15.9727 16.11 15.7226C15.86 15.4726 15.5208 15.3321 15.1672 15.3321Z" fill="white"/>
</svg>
