<svg width="24" height="25" viewBox="0 0 24 25" fill="none" xmlns="http://www.w3.org/2000/svg">
<path d="M18.4004 2.90039C17.5517 2.90039 16.7378 3.23753 16.1376 3.83765C15.5375 4.43777 15.2004 5.2517 15.2004 6.10039C15.2018 6.32532 15.227 6.54948 15.2754 6.76914L8.00976 10.402C7.7101 10.057 7.34002 9.78014 6.92443 9.59013C6.50883 9.40012 6.05736 9.30132 5.60039 9.30039C4.7517 9.30039 3.93777 9.63753 3.33765 10.2376C2.73753 10.8378 2.40039 11.6517 2.40039 12.5004C2.40039 13.3491 2.73753 14.163 3.33765 14.7631C3.93777 15.3632 4.7517 15.7004 5.60039 15.7004C6.0575 15.6999 6.5092 15.6014 6.92508 15.4117C7.34095 15.2219 7.71135 14.9453 8.01133 14.6004L15.2723 18.2316C15.2249 18.4514 15.2008 18.6756 15.2004 18.9004C15.2004 19.7491 15.5375 20.563 16.1376 21.1631C16.7378 21.7632 17.5517 22.1004 18.4004 22.1004C19.2491 22.1004 20.063 21.7632 20.6631 21.1631C21.2632 20.563 21.6004 19.7491 21.6004 18.9004C21.6004 18.0517 21.2632 17.2378 20.6631 16.6376C20.063 16.0375 19.2491 15.7004 18.4004 15.7004C17.9433 15.7009 17.4916 15.7993 17.0757 15.9891C16.6598 16.1788 16.2894 16.4555 15.9895 16.8004L8.72851 13.1691C8.7759 12.9494 8.79999 12.7252 8.80039 12.5004C8.79885 12.276 8.77372 12.0524 8.72539 11.8332L15.991 8.20039C16.2908 8.5451 16.661 8.82163 17.0766 9.01136C17.4921 9.2011 17.9435 9.29965 18.4004 9.30039C19.2491 9.30039 20.063 8.96325 20.6631 8.36313C21.2632 7.76302 21.6004 6.94908 21.6004 6.10039C21.6004 5.2517 21.2632 4.43777 20.6631 3.83765C20.063 3.23753 19.2491 2.90039 18.4004 2.90039Z" fill="black"/>
</svg>
