<svg width="20" height="20" viewBox="0 0 20 20" fill="none" xmlns="http://www.w3.org/2000/svg">
<g clip-path="url(#clip0_2221_10866)">
<path d="M2.92889 7.64338C0.331178 10.2411 0.331178 14.4738 2.92889 17.0715C5.5266 19.6692 9.75927 19.6692 12.357 17.0715C13.2156 16.2128 13.7849 15.1742 14.0759 14.0764C15.1738 13.7854 16.2124 13.2161 17.071 12.3574C19.6687 9.75971 19.6687 5.52704 17.071 2.92933C14.4733 0.331621 10.2406 0.331621 7.64293 2.92933C6.78426 3.788 6.21497 4.82656 5.92396 5.92441C4.82611 6.21541 3.78756 6.78471 2.92889 7.64338ZM8.58574 3.87214C10.6738 1.78409 14.0402 1.78409 16.1282 3.87214C18.2163 5.96019 18.2163 9.32656 16.1282 11.4146C15.5877 11.9551 14.9607 12.3536 14.2932 12.6143C14.3617 10.8221 13.721 9.0074 12.357 7.64338C10.993 6.27935 9.17825 5.63868 7.38606 5.70712C7.64673 5.03961 8.04521 4.41267 8.58574 3.87214ZM7.0546 7.05504C8.60709 6.88294 10.2197 7.39173 11.4142 8.58619C12.6086 9.78064 13.1174 11.3933 12.9453 12.9458C11.3928 13.1179 9.7802 12.6091 8.58574 11.4146C7.39129 10.2202 6.8825 8.60753 7.0546 7.05504Z" fill="black" fill-opacity="0.4"/>
</g>
<defs>
<clipPath id="clip0_2221_10866">
<rect width="20" height="20" fill="white"/>
</clipPath>
</defs>
</svg>
