<svg width="16" height="16" viewBox="0 0 16 16" fill="none" xmlns="http://www.w3.org/2000/svg">
<path fill-rule="evenodd" clip-rule="evenodd" d="M12.0002 1.69069C12.001 1.56882 11.9567 1.45096 11.8759 1.35977C11.795 1.26859 11.6833 1.2105 11.5622 1.19669C9.19479 0.934437 6.80564 0.934437 4.43821 1.19669C4.3173 1.21048 4.20573 1.26842 4.1249 1.3594C4.04408 1.45038 3.99967 1.56799 4.00021 1.68969V2.25669C3.18921 2.36069 2.38821 2.49669 1.59721 2.66269C1.43221 2.69748 1.28374 2.78687 1.17578 2.91641C1.06783 3.04596 1.00668 3.20811 1.00221 3.37669C0.969321 4.56558 1.40843 5.71914 2.22355 6.58523C3.03867 7.45132 4.16351 7.9595 5.35221 7.99869C5.82457 8.41687 6.38935 8.71708 7.00021 8.87469V10.0007H6.00021C5.73499 10.0007 5.48064 10.106 5.2931 10.2936C5.10557 10.4811 5.00021 10.7355 5.00021 11.0007V13.0007H4.33321C3.59721 13.0007 3.00021 13.5977 3.00021 14.3337C3.00021 14.7017 3.29821 15.0007 3.66721 15.0007H12.3332C12.5101 15.0007 12.6798 14.9304 12.8049 14.8053C12.9299 14.6802 13.0002 14.5106 13.0002 14.3337C13.0002 13.5977 12.4032 13.0007 11.6672 13.0007H11.0002V11.0007C11.0002 10.7355 10.8949 10.4811 10.7073 10.2936C10.5198 10.106 10.2654 10.0007 10.0002 10.0007H9.00021V8.87469C9.61143 8.71723 10.1766 8.41701 10.6492 7.99869C11.8379 7.9595 12.9628 7.45132 13.7779 6.58523C14.593 5.71914 15.0321 4.56558 14.9992 3.37669C14.9947 3.20797 14.9334 3.04572 14.8252 2.91615C14.7171 2.78658 14.5684 2.69728 14.4032 2.66269C13.6079 2.49581 12.8062 2.36037 12.0002 2.25669V1.68969V1.69069ZM4.00021 3.76869C3.51021 3.83469 3.02421 3.91369 2.54221 4.00369C2.62237 4.47286 2.81286 4.91626 3.098 5.29737C3.38313 5.67847 3.75474 5.98637 4.18221 6.19569C4.06135 5.80888 3.99998 5.40594 4.00021 5.00069V3.76969V3.76869ZM12.0002 3.76869C12.4902 3.83469 12.9762 3.91369 13.4582 4.00369C13.3781 4.47286 13.1876 4.91626 12.9024 5.29737C12.6173 5.67847 12.2457 5.98637 11.8182 6.19569C11.9362 5.81869 12.0002 5.41669 12.0002 5.00069V3.76969V3.76869Z" fill="black"/>
</svg>
