<svg width="40" height="40" viewBox="0 0 40 40" fill="none" xmlns="http://www.w3.org/2000/svg">
<path d="M19.9998 5.33301C9.33317 5.33301 6.6665 8.45701 6.6665 10.6663V27.9997C6.6665 30.5893 8.51301 32.7426 10.9608 33.2262L8.90869 37.333H11.9998L13.9998 33.333H25.9998L27.9998 37.333H31.091L29.0389 33.2262C31.4867 32.7426 33.3332 30.5893 33.3332 27.9997V10.6663C33.3332 8.45701 30.6665 5.33301 19.9998 5.33301ZM10.6665 10.6663H17.3332C18.0692 10.6663 18.6665 11.2637 18.6665 11.9997V17.333C18.6665 18.069 18.0692 18.6663 17.3332 18.6663H10.6665C9.9305 18.6663 9.33317 18.069 9.33317 17.333V11.9997C9.33317 11.2637 9.9305 10.6663 10.6665 10.6663ZM22.6665 10.6663H29.3332C30.0692 10.6663 30.6665 11.2637 30.6665 11.9997V17.333C30.6665 18.069 30.0692 18.6663 29.3332 18.6663H22.6665C21.9305 18.6663 21.3332 18.069 21.3332 17.333V11.9997C21.3332 11.2637 21.9305 10.6663 22.6665 10.6663ZM12.6665 25.333C13.7705 25.333 14.6665 26.229 14.6665 27.333C14.6665 28.437 13.7705 29.333 12.6665 29.333C11.5625 29.333 10.6665 28.437 10.6665 27.333C10.6665 26.229 11.5625 25.333 12.6665 25.333ZM27.3332 25.333C28.4372 25.333 29.3332 26.229 29.3332 27.333C29.3332 28.437 28.4372 29.333 27.3332 29.333C26.2292 29.333 25.3332 28.437 25.3332 27.333C25.3332 26.229 26.2292 25.333 27.3332 25.333Z" fill="black" fill-opacity="0.6"/>
</svg>
