<svg width="22" height="22" viewBox="0 0 22 22" fill="none" xmlns="http://www.w3.org/2000/svg">
<path d="M11.4884 17.0114C11.185 16.8415 10.815 16.8415 10.5116 17.0114L6.42646 19.2981C5.68186 19.7149 4.79091 19.0676 4.95718 18.2307L5.86943 13.6387C5.9372 13.2976 5.82286 12.9458 5.56751 12.7096L2.12989 9.53093C1.50336 8.95158 1.84364 7.90417 2.69103 7.80367L7.34036 7.25226C7.68569 7.2113 7.98495 6.99388 8.13062 6.67811L10.092 2.42641C10.4494 1.65159 11.5506 1.65159 11.908 2.42641L13.8694 6.67811C14.0151 6.99388 14.3143 7.2113 14.6596 7.25226L19.309 7.80367C20.1564 7.90417 20.4966 8.95158 19.8701 9.53092L16.4325 12.7096C16.1771 12.9458 16.0628 13.2976 16.1306 13.6387L17.0428 18.2307C17.2091 19.0676 16.3181 19.7149 15.5735 19.2981L11.4884 17.0114Z" fill="black" fill-opacity="0.1"/>
</svg>
