<svg width="24" height="24" viewBox="0 0 24 24" fill="none" xmlns="http://www.w3.org/2000/svg">
<path d="M9.59372 4.94C9.68372 4.398 10.1537 4 10.7037 4H13.2967C13.8467 4 14.3167 4.398 14.4067 4.94L14.6197 6.221C14.6827 6.595 14.9327 6.907 15.2647 7.091C15.3387 7.131 15.4117 7.174 15.4847 7.218C15.8097 7.414 16.2047 7.475 16.5597 7.342L17.7767 6.886C18.0261 6.79221 18.3007 6.78998 18.5516 6.87971C18.8025 6.96945 19.0134 7.14531 19.1467 7.376L20.4427 9.623C20.5758 9.8537 20.6227 10.1241 20.5751 10.3862C20.5275 10.6482 20.3884 10.8848 20.1827 11.054L19.1797 11.881C18.8867 12.122 18.7417 12.494 18.7497 12.873C18.7511 12.958 18.7511 13.043 18.7497 13.128C18.7417 13.506 18.8867 13.878 19.1797 14.119L20.1837 14.946C20.6077 15.296 20.7177 15.901 20.4437 16.376L19.1457 18.623C19.0126 18.8536 18.8019 19.0296 18.5512 19.1195C18.3005 19.2094 18.0261 19.2074 17.7767 19.114L16.5597 18.658C16.2047 18.525 15.8097 18.586 15.4837 18.782C15.4112 18.8261 15.3379 18.8688 15.2637 18.91C14.9327 19.093 14.6827 19.405 14.6197 19.779L14.4067 21.06C14.3167 21.603 13.8467 22 13.2967 22H10.7027C10.1527 22 9.68372 21.602 9.59272 21.06L9.37972 19.779C9.31772 19.405 9.06772 19.093 8.73572 18.909C8.66157 18.8681 8.58822 18.8258 8.51572 18.782C8.19072 18.586 7.79572 18.525 7.43972 18.658L6.22272 19.114C5.97345 19.2075 5.69908 19.2096 5.44842 19.1199C5.19775 19.0302 4.98703 18.8545 4.85372 18.624L3.55672 16.377C3.42366 16.1463 3.37676 15.8759 3.42437 15.6138C3.47198 15.3518 3.61101 15.1152 3.81672 14.946L4.82072 14.119C5.11272 13.879 5.25772 13.506 5.25072 13.128C5.24915 13.043 5.24915 12.958 5.25072 12.873C5.25772 12.493 5.11272 12.122 4.82072 11.881L3.81672 11.054C3.61126 10.8849 3.47239 10.6484 3.42479 10.3866C3.37719 10.1248 3.42393 9.8546 3.55672 9.624L4.85372 7.377C4.9869 7.14614 5.19773 6.97006 5.44863 6.88014C5.69953 6.79021 5.97421 6.79229 6.22372 6.886L7.43972 7.342C7.79572 7.475 8.19072 7.414 8.51572 7.218C8.58772 7.174 8.66172 7.132 8.73572 7.09C9.06772 6.907 9.31772 6.595 9.37972 6.221L9.59372 4.94Z" stroke="black" stroke-opacity="0.9" stroke-width="2" stroke-linecap="round" stroke-linejoin="round"/>
<path d="M15 13C15 13.7956 14.6839 14.5587 14.1213 15.1213C13.5587 15.6839 12.7956 16 12 16C11.2044 16 10.4413 15.6839 9.87868 15.1213C9.31607 14.5587 9 13.7956 9 13C9 12.2044 9.31607 11.4413 9.87868 10.8787C10.4413 10.3161 11.2044 10 12 10C12.7956 10 13.5587 10.3161 14.1213 10.8787C14.6839 11.4413 15 12.2044 15 13Z" stroke="black" stroke-opacity="0.9" stroke-width="2" stroke-linecap="round" stroke-linejoin="round"/>
</svg>
