<svg width="20" height="21" viewBox="0 0 20 21" fill="none" xmlns="http://www.w3.org/2000/svg">
<path d="M2.879 7.621C3.19313 7.93531 3.57316 8.17591 3.99163 8.32541C4.4101 8.47491 4.85656 8.52958 5.29874 8.48547C5.74092 8.44136 6.16777 8.29956 6.54846 8.07034C6.92915 7.84111 7.25416 7.53017 7.5 7.16C7.77365 7.57243 8.14519 7.91066 8.58144 8.14448C9.01768 8.37831 9.50504 8.50045 10 8.5C10.495 8.50045 10.9823 8.37831 11.4186 8.14448C11.8548 7.91066 12.2263 7.57243 12.5 7.16C12.732 7.50876 13.0344 7.80509 13.3878 8.02989C13.7413 8.25469 14.1379 8.40299 14.5521 8.46524C14.9663 8.52749 15.3889 8.50232 15.7928 8.39133C16.1967 8.28034 16.5729 8.08601 16.8971 7.82083C17.2214 7.55566 17.4865 7.22553 17.6754 6.85169C17.8644 6.47785 17.9729 6.0686 17.9941 5.65027C18.0153 5.23194 17.9486 4.81381 17.7984 4.4228C17.6482 4.03179 17.4178 3.67657 17.122 3.38L16.829 3.087C16.6434 2.90109 16.423 2.75356 16.1804 2.65284C15.9378 2.55212 15.6777 2.50019 15.415 2.5H4.585C4.05461 2.50011 3.54599 2.7109 3.171 3.086L2.879 3.378C2.60037 3.65658 2.37935 3.98732 2.22855 4.35133C2.07775 4.71534 2.00014 5.10549 2.00014 5.4995C2.00014 5.89351 2.07775 6.28366 2.22855 6.64767C2.37935 7.01168 2.60037 7.34242 2.879 7.621ZM3 9.532C3.70948 9.8831 4.49891 10.0412 5.28888 9.99025C6.07884 9.93934 6.84146 9.68127 7.5 9.242C8.23952 9.73742 9.10987 10.0013 10 10C10.8901 10.0013 11.7605 9.73742 12.5 9.242C13.1585 9.68127 13.9212 9.93934 14.7111 9.99025C15.5011 10.0412 16.2905 9.8831 17 9.532V17H17.25C17.4489 17 17.6397 17.079 17.7803 17.2197C17.921 17.3603 18 17.5511 18 17.75C18 17.9489 17.921 18.1397 17.7803 18.2803C17.6397 18.421 17.4489 18.5 17.25 18.5H12.75C12.5511 18.5 12.3603 18.421 12.2197 18.2803C12.079 18.1397 12 17.9489 12 17.75V14.25C12 14.0511 11.921 13.8603 11.7803 13.7197C11.6397 13.579 11.4489 13.5 11.25 13.5H8.75C8.55109 13.5 8.36032 13.579 8.21967 13.7197C8.07902 13.8603 8 14.0511 8 14.25V17.75C8 17.9489 7.92098 18.1397 7.78033 18.2803C7.63968 18.421 7.44891 18.5 7.25 18.5H2.75C2.55109 18.5 2.36032 18.421 2.21967 18.2803C2.07902 18.1397 2 17.9489 2 17.75C2 17.5511 2.07902 17.3603 2.21967 17.2197C2.36032 17.079 2.55109 17 2.75 17H3V9.532Z" fill="black" fill-opacity="0.3"/>
</svg>
