<svg width="20" height="20" viewBox="0 0 20 20" fill="none" xmlns="http://www.w3.org/2000/svg">
<path d="M9.99912 1.33203C7.05379 1.33203 4.66579 3.72003 4.66579 6.66536C4.66579 10.6654 9.33246 11.9987 9.33246 14.6654C9.33246 15.0334 9.63112 15.332 9.99912 15.332C10.3671 15.332 10.6658 15.0334 10.6658 14.6654C10.6658 11.9987 15.3325 10.6654 15.3325 6.66536C15.3325 3.72003 12.9445 1.33203 9.99912 1.33203ZM9.99912 5.33203C10.7358 5.33203 11.3325 5.9287 11.3325 6.66536C11.3325 7.40203 10.7358 7.9987 9.99912 7.9987C9.26246 7.9987 8.66579 7.40203 8.66579 6.66536C8.66579 5.9287 9.26246 5.33203 9.99912 5.33203ZM3.99912 11.332C3.72112 11.332 3.47212 11.505 3.37412 11.7643L1.37412 17.0977C1.29746 17.303 1.32695 17.5309 1.45095 17.7109C1.57628 17.8909 1.78046 17.9987 1.99912 17.9987H17.9991C18.2178 17.9987 18.4226 17.8909 18.5473 17.7109C18.672 17.5316 18.7008 17.303 18.6241 17.0977L16.6241 11.7643C16.5261 11.505 16.2771 11.332 15.9991 11.332H14.6814C14.3161 11.74 13.9391 12.1129 13.5838 12.4635C13.5138 12.5315 13.4467 12.5987 13.3793 12.6654H15.5369L17.0369 16.6654H2.96136L4.46136 12.6654H6.61892C6.55158 12.5987 6.48512 12.5315 6.41579 12.4635C6.05979 12.1129 5.68217 11.74 5.31683 11.332H3.99912Z" fill="black" fill-opacity="0.3"/>
</svg>
