<svg width="20" height="20" viewBox="0 0 20 20" fill="none" xmlns="http://www.w3.org/2000/svg">
<path d="M2.00016 17.3331C1.63216 17.3331 1.3335 17.0351 1.3335 16.6664C1.3335 15.5964 1.65683 6.36844 12.6668 6.01044V3.3331C12.6668 3.06377 12.8295 2.81977 13.0782 2.7171C13.3275 2.6131 13.6142 2.6711 13.8048 2.86177L18.4715 7.52844C18.7322 7.7891 18.7322 8.21044 18.4715 8.4711L13.8048 13.1378C13.6142 13.3284 13.3275 13.3858 13.0782 13.2824C12.8295 13.1798 12.6668 12.9358 12.6668 12.6664V10.0091C8.58683 10.1231 5.5795 11.2918 3.94483 13.4078C2.6815 15.0418 2.66683 16.6504 2.66683 16.6664C2.66683 17.0351 2.36816 17.3331 2.00016 17.3331Z" fill="#F35B1A"/>
</svg>
