<svg width="174" height="27" viewBox="0 0 174 27" fill="none" xmlns="http://www.w3.org/2000/svg">
<path d="M18.7114 1.53013C17.4951 -0.510038 14.4759 -0.510044 13.2596 1.53012L8.39643 9.6878C7.90414 10.5136 8.26285 11.5737 9.16218 11.9508C13.5185 13.7777 18.4525 13.7777 22.8088 11.9508C23.7082 11.5737 24.0669 10.5136 23.5746 9.6878L18.7114 1.53013Z" fill="white"/>
<path d="M28.2712 26.827C30.704 26.8312 32.2253 24.2591 31.0053 22.2047L26.0867 13.9231C25.6011 13.1053 24.4947 12.8817 23.7162 13.444C19.8796 16.2152 17.3942 20.417 16.8538 25.0458C16.7442 25.985 17.4958 26.8084 18.4642 26.8101L28.2712 26.827Z" fill="white"/>
<path d="M3.16409 26.827C0.731364 26.8312 -0.790018 24.2591 0.430063 22.2047L5.34858 13.9231C5.83426 13.1053 6.94066 12.8817 7.71911 13.444C11.5557 16.2152 14.0411 20.417 14.5815 25.0458C14.6912 25.985 13.9396 26.8084 12.9712 26.8101L3.16409 26.827Z" fill="white"/>
<path d="M38.2808 25.2203C37.9838 25.799 38.4144 26.4808 39.0769 26.4808H42.5752C42.9118 26.4808 43.2196 26.2954 43.3708 26.0015L45.9416 21.007C46.0188 20.857 46.1627 20.7503 46.3314 20.7181C50.6342 19.8946 55.0597 19.8946 59.3626 20.7181C59.5312 20.7503 59.6751 20.857 59.7523 21.007L62.3231 26.0015C62.4744 26.2954 62.7822 26.4808 63.1187 26.4808H66.6488C67.3122 26.4808 67.7427 25.7974 67.444 25.2185L55.8389 2.72839C55.6875 2.43499 55.38 2.24993 55.0437 2.24993H50.6162C50.2793 2.24993 49.9711 2.43579 49.8201 2.73017L38.2808 25.2203ZM48.8424 16.1908C48.6485 16.2468 48.48 16.0494 48.5709 15.873L52.034 9.15756C52.3631 8.51935 53.2955 8.51935 53.6246 9.15756L57.0876 15.873C57.1786 16.0494 57.01 16.2468 56.8162 16.1908C54.2138 15.4399 51.4448 15.4399 48.8424 16.1908Z" fill="white"/>
<path d="M69.8893 14.4C69.8893 9.58842 73.325 6.1961 78.1422 6.1961C81.6406 6.1961 84.4181 7.75818 85.8558 10.3349C86.0225 10.6338 86.3351 10.8346 86.6834 10.8346H89.8969C90.4864 10.8346 90.9135 10.2836 90.7061 9.74424C88.8071 4.805 84.0938 1.7307 78.1776 1.7307C70.4914 1.7307 64.9305 7.0961 64.9305 14.4C64.9305 21.6 70.456 27 77.8588 27C80.8753 27 83.519 26.1119 85.6576 24.4834C86.2544 24.029 87.2021 24.3468 87.2901 25.0812L87.3655 25.7116C87.4181 26.1501 87.7983 26.4808 88.2501 26.4808H91.03C91.5218 26.4808 91.9206 26.0911 91.9206 25.6104V13.8165C91.9206 13.3358 91.5218 12.9461 91.03 12.9461H79.1036C78.6117 12.9461 78.213 13.3358 78.213 13.8165V16.1258C78.213 16.6065 78.6117 16.9961 79.1036 16.9961H84.9985C85.5912 16.9961 86.0188 17.5539 85.7754 18.0821C84.5185 20.8096 81.8245 22.5 78.4609 22.5C73.4667 22.5 69.8893 19.1769 69.8893 14.4Z" fill="white"/>
<path d="M92.9647 25.2203C92.6677 25.799 93.0983 26.4808 93.7608 26.4808H97.2591C97.5957 26.4808 97.9035 26.2954 98.0547 26.0015L100.562 21.1296C100.672 20.9165 100.914 20.8009 101.153 20.8467C105.365 21.6528 109.697 21.6528 113.909 20.8467C114.148 20.8009 114.39 20.9165 114.499 21.1296L117.007 26.0015C117.158 26.2954 117.466 26.4808 117.803 26.4808H121.333C121.996 26.4808 122.427 25.7974 122.128 25.2185L110.523 2.72839C110.371 2.43499 110.064 2.24993 109.728 2.24993H105.3C104.963 2.24993 104.655 2.43579 104.504 2.73017L92.9647 25.2203ZM103.295 16.4194C103.149 16.3772 103.078 16.2161 103.146 16.0831L106.718 9.15756C107.047 8.51935 107.979 8.51935 108.308 9.15756L111.88 16.0831C111.948 16.2161 111.877 16.3772 111.731 16.4194C108.978 17.2138 106.048 17.2138 103.295 16.4194Z" fill="white"/>
<path d="M123.652 25.6104C123.652 26.0911 124.051 26.4808 124.543 26.4808H136.191C141.787 26.4808 145.931 23.7808 145.931 19.7307C145.931 17.6988 144.82 16.0491 142.926 14.935C142.242 14.5324 142.16 13.3965 142.755 12.8766C144.033 11.7613 144.798 10.2773 144.798 8.58457C144.798 4.74225 141.327 2.24993 136.191 2.24993H124.543C124.051 2.24993 123.652 2.63961 123.652 3.12029V25.6104ZM140.052 9.34611C140.052 11.0077 138.281 12.2192 136.191 12.2192H129.502C129.01 12.2192 128.611 11.8295 128.611 11.3488V7.27415C128.611 6.79346 129.01 6.40379 129.502 6.40379H136.191C138.422 6.40379 140.052 7.58072 140.052 9.34611ZM140.937 19.2808C140.937 21.15 139.06 22.2923 136.191 22.2923H129.502C129.01 22.2923 128.611 21.9026 128.611 21.4219V17.1049C128.611 16.6243 129.01 16.2346 129.502 16.2346H136.191C139.166 16.2346 140.937 17.3077 140.937 19.2808Z" fill="white"/>
<path d="M144.74 25.2203C144.443 25.799 144.874 26.4808 145.536 26.4808H149.035C149.371 26.4808 149.679 26.2954 149.83 26.0015L152.401 21.007C152.478 20.857 152.622 20.7503 152.791 20.7181C157.094 19.8946 161.519 19.8946 165.822 20.7181C165.991 20.7503 166.135 20.857 166.212 21.007L168.783 26.0015C168.934 26.2954 169.242 26.4808 169.578 26.4808H173.108C173.772 26.4808 174.202 25.7974 173.903 25.2185L162.298 2.72839C162.147 2.43499 161.839 2.24993 161.503 2.24993H157.076C156.739 2.24993 156.431 2.43579 156.28 2.73017L144.74 25.2203ZM155.302 16.1908C155.108 16.2468 154.939 16.0494 155.03 15.873L158.493 9.15756C158.823 8.51935 159.755 8.51935 160.084 9.15756L163.547 15.873C163.638 16.0494 163.469 16.2468 163.276 16.1908C160.673 15.4399 157.904 15.4399 155.302 16.1908Z" fill="white"/>
</svg>
