<svg width="181" height="46" viewBox="0 0 181 46" fill="none" xmlns="http://www.w3.org/2000/svg">
<g filter="url(#filter0_f_2140_1534)">
<circle cx="22.5" cy="23" r="8.5" fill="#C3EB0E"/>
</g>
<path d="M25.7114 8.53013C24.4951 6.48996 21.4759 6.48996 20.2596 8.53012L15.3964 16.6878C14.9041 17.5136 15.2628 18.5737 16.1622 18.9508C20.5185 20.7777 25.4525 20.7777 29.8088 18.9508C30.7082 18.5737 31.0669 17.5136 30.5746 16.6878L25.7114 8.53013Z" fill="black"/>
<path d="M35.2712 33.827C37.704 33.8312 39.2253 31.2591 38.0053 29.2047L33.0867 20.9231C32.6011 20.1053 31.4947 19.8817 30.7162 20.444C26.8796 23.2152 24.3942 27.417 23.8538 32.0458C23.7442 32.985 24.4958 33.8084 25.4642 33.8101L35.2712 33.827Z" fill="black"/>
<path d="M10.1641 33.827C7.73136 33.8312 6.20998 31.2591 7.43006 29.2047L12.3486 20.9231C12.8343 20.1053 13.9407 19.8817 14.7191 20.444C18.5557 23.2152 21.0411 27.417 21.5815 32.0458C21.6912 32.985 20.9396 33.8084 19.9712 33.8101L10.1641 33.827Z" fill="black"/>
<path d="M45.2808 32.2203C44.9838 32.799 45.4144 33.4808 46.0769 33.4808H49.5752C49.9118 33.4808 50.2196 33.2954 50.3708 33.0015L52.9416 28.007C53.0188 27.857 53.1627 27.7503 53.3314 27.7181C57.6342 26.8946 62.0597 26.8946 66.3626 27.7181C66.5312 27.7503 66.6751 27.857 66.7523 28.007L69.3231 33.0015C69.4744 33.2954 69.7822 33.4808 70.1187 33.4808H73.6488C74.3122 33.4808 74.7427 32.7974 74.444 32.2185L62.8389 9.72839C62.6875 9.43499 62.38 9.24993 62.0437 9.24993H57.6162C57.2793 9.24993 56.9711 9.43579 56.8201 9.73017L45.2808 32.2203ZM55.8424 23.1908C55.6485 23.2468 55.48 23.0494 55.5709 22.873L59.034 16.1576C59.3631 15.5193 60.2955 15.5194 60.6246 16.1576L64.0876 22.873C64.1786 23.0494 64.01 23.2468 63.8162 23.1908C61.2138 22.4399 58.4448 22.4399 55.8424 23.1908Z" fill="black"/>
<path d="M76.8893 21.4C76.8893 16.5884 80.325 13.1961 85.1422 13.1961C88.6406 13.1961 91.4181 14.7582 92.8558 17.3349C93.0225 17.6338 93.3351 17.8346 93.6834 17.8346H96.8969C97.4864 17.8346 97.9135 17.2836 97.7061 16.7442C95.8071 11.805 91.0938 8.7307 85.1776 8.7307C77.4914 8.7307 71.9305 14.0961 71.9305 21.4C71.9305 28.6 77.456 34 84.8588 34C87.8753 34 90.519 33.1119 92.6576 31.4834C93.2544 31.029 94.2021 31.3468 94.2901 32.0812L94.3655 32.7116C94.4181 33.1501 94.7983 33.4808 95.2501 33.4808H98.03C98.5218 33.4808 98.9206 33.0911 98.9206 32.6104V20.8165C98.9206 20.3358 98.5218 19.9461 98.03 19.9461H86.1036C85.6117 19.9461 85.213 20.3358 85.213 20.8165V23.1258C85.213 23.6065 85.6117 23.9961 86.1036 23.9961H91.9985C92.5912 23.9961 93.0188 24.5539 92.7754 25.0821C91.5185 27.8096 88.8245 29.5 85.4609 29.5C80.4667 29.5 76.8893 26.1769 76.8893 21.4Z" fill="black"/>
<path d="M99.9647 32.2203C99.6677 32.799 100.098 33.4808 100.761 33.4808H104.259C104.596 33.4808 104.903 33.2954 105.055 33.0015L107.562 28.1296C107.672 27.9165 107.914 27.8009 108.153 27.8467C112.365 28.6528 116.697 28.6528 120.909 27.8467C121.148 27.8009 121.39 27.9165 121.499 28.1296L124.007 33.0015C124.158 33.2954 124.466 33.4808 124.803 33.4808H128.333C128.996 33.4808 129.427 32.7974 129.128 32.2185L117.523 9.72839C117.371 9.43499 117.064 9.24993 116.728 9.24993H112.3C111.963 9.24993 111.655 9.43579 111.504 9.73017L99.9647 32.2203ZM110.295 23.4194C110.149 23.3772 110.078 23.2161 110.146 23.0831L113.718 16.1576C114.047 15.5193 114.979 15.5193 115.308 16.1576L118.88 23.0831C118.948 23.2161 118.877 23.3772 118.731 23.4194C115.978 24.2138 113.048 24.2138 110.295 23.4194Z" fill="black"/>
<path d="M130.652 32.6104C130.652 33.0911 131.051 33.4808 131.543 33.4808H143.191C148.787 33.4808 152.931 30.7808 152.931 26.7307C152.931 24.6988 151.82 23.0491 149.926 21.935C149.242 21.5324 149.16 20.3965 149.755 19.8766C151.033 18.7613 151.798 17.2773 151.798 15.5846C151.798 11.7422 148.327 9.24993 143.191 9.24993H131.543C131.051 9.24993 130.652 9.63961 130.652 10.1203V32.6104ZM147.052 16.3461C147.052 18.0077 145.281 19.2192 143.191 19.2192H136.502C136.01 19.2192 135.611 18.8295 135.611 18.3488V14.2741C135.611 13.7935 136.01 13.4038 136.502 13.4038H143.191C145.422 13.4038 147.052 14.5807 147.052 16.3461ZM147.937 26.2808C147.937 28.15 146.06 29.2923 143.191 29.2923H136.502C136.01 29.2923 135.611 28.9026 135.611 28.4219V24.1049C135.611 23.6243 136.01 23.2346 136.502 23.2346H143.191C146.166 23.2346 147.937 24.3077 147.937 26.2808Z" fill="black"/>
<path d="M151.74 32.2203C151.443 32.799 151.874 33.4808 152.536 33.4808H156.035C156.371 33.4808 156.679 33.2954 156.83 33.0015L159.401 28.007C159.478 27.857 159.622 27.7503 159.791 27.7181C164.094 26.8946 168.519 26.8946 172.822 27.7181C172.991 27.7503 173.135 27.857 173.212 28.007L175.783 33.0015C175.934 33.2954 176.242 33.4808 176.578 33.4808H180.108C180.772 33.4808 181.202 32.7974 180.903 32.2185L169.298 9.72839C169.147 9.43499 168.839 9.24993 168.503 9.24993H164.076C163.739 9.24993 163.431 9.43579 163.28 9.73017L151.74 32.2203ZM162.302 23.1908C162.108 23.2468 161.939 23.0494 162.03 22.873L165.493 16.1576C165.823 15.5193 166.755 15.5193 167.084 16.1576L170.547 22.873C170.638 23.0494 170.469 23.2468 170.276 23.1908C167.673 22.4399 164.904 22.4399 162.302 23.1908Z" fill="black"/>
<defs>
<filter id="filter0_f_2140_1534" x="0" y="0.5" width="45" height="45" filterUnits="userSpaceOnUse" color-interpolation-filters="sRGB">
<feFlood flood-opacity="0" result="BackgroundImageFix"/>
<feBlend mode="normal" in="SourceGraphic" in2="BackgroundImageFix" result="shape"/>
<feGaussianBlur stdDeviation="7" result="effect1_foregroundBlur_2140_1534"/>
</filter>
</defs>
</svg>
