<svg width="18" height="18" viewBox="0 0 18 18" fill="none" xmlns="http://www.w3.org/2000/svg">
<path d="M9.655 8.25C10.5617 8.25 11.25 8.175 11.25 7.5C11.25 6.81429 10.6011 6.75 9.68314 6.75H8.72046L8.69232 8.25H9.655Z" fill="black" fill-opacity="0.6"/>
<path fill-rule="evenodd" clip-rule="evenodd" d="M9 1.5C4.85786 1.5 1.5 4.85786 1.5 9C1.5 13.1421 4.85786 16.5 9 16.5C13.1421 16.5 16.5 13.1421 16.5 9C16.5 4.85786 13.1421 1.5 9 1.5ZM8.72046 13.5H7.15329L7.12515 12H5.97217V10.5H7.12515V9.75H5.97217V8.25H7.12515L7.15329 5.25H9.68314C12 5.25 12.7503 6.05357 12.7503 7.5C12.7503 8.91429 12 9.75 9.655 9.75H8.69232V10.5H10.808V12H8.69232L8.72046 13.5Z" fill="black" fill-opacity="0.6"/>
</svg>
