<svg width="6" height="10" viewBox="0 0 6 10" fill="none" xmlns="http://www.w3.org/2000/svg">
<path fill-rule="evenodd" clip-rule="evenodd" d="M0.188685 8.87577C0.0736662 8.74703 0.0108159 8.57438 0.0139454 8.39576C0.017075 8.21714 0.0859282 8.04717 0.205374 7.9232L3.49161 4.58921L0.205374 1.25523C0.143334 1.19462 0.0932209 1.12123 0.0580045 1.03939C0.0227881 0.957547 0.00318511 0.868926 0.000356611 0.778777C-0.00247188 0.688628 0.0115316 0.598784 0.0415379 0.51457C0.0715442 0.430357 0.116943 0.353486 0.175043 0.288512C0.233143 0.223539 0.302763 0.171785 0.379777 0.136319C0.456791 0.100852 0.539633 0.0823927 0.623393 0.082036C0.707154 0.0816793 0.790128 0.099432 0.867401 0.134241C0.944673 0.169051 1.01467 0.22021 1.07325 0.284686L4.82847 4.10394C4.88904 4.16681 4.93722 4.24219 4.97013 4.32557C5.00304 4.40895 5.02 4.49862 5.02 4.58921C5.02 4.67981 5.00304 4.76948 4.97013 4.85285C4.93722 4.93623 4.88904 5.01161 4.82847 5.07448L1.07325 8.89374C0.953699 9.0176 0.793377 9.08528 0.627512 9.08191C0.461646 9.07854 0.303809 9.00439 0.188685 8.87577Z" fill="#F35B1A"/>
</svg>
