<svg width="20" height="20" viewBox="0 0 20 20" fill="none" xmlns="http://www.w3.org/2000/svg">
<path fill-rule="evenodd" clip-rule="evenodd" d="M10 1C8.284 1 6.592 1.106 4.93 1.31C3.806 1.45 3 2.414 3 3.517V16.75C3 17.0455 3.0582 17.3381 3.17127 17.611C3.28434 17.884 3.45008 18.1321 3.65901 18.341C3.86794 18.5499 4.11598 18.7157 4.38896 18.8287C4.66194 18.9418 4.95453 19 5.25 19H14.75C15.0455 19 15.3381 18.9418 15.611 18.8287C15.884 18.7157 16.1321 18.5499 16.341 18.341C16.5499 18.1321 16.7157 17.884 16.8287 17.611C16.9418 17.3381 17 17.0455 17 16.75V3.517C17 2.414 16.194 1.449 15.07 1.31C13.3879 1.103 11.6948 0.999473 10 1ZM5.99 8.75C5.99 8.55109 6.06902 8.36032 6.20967 8.21967C6.35032 8.07902 6.54109 8 6.74 8H6.75C6.94891 8 7.13968 8.07902 7.28033 8.21967C7.42098 8.36032 7.5 8.55109 7.5 8.75V8.76C7.5 8.95891 7.42098 9.14968 7.28033 9.29033C7.13968 9.43098 6.94891 9.51 6.75 9.51H6.74C6.54109 9.51 6.35032 9.43098 6.20967 9.29033C6.06902 9.14968 5.99 8.95891 5.99 8.76V8.75ZM6.74 10.167C6.54109 10.167 6.35032 10.246 6.20967 10.3867C6.06902 10.5273 5.99 10.7181 5.99 10.917V10.927C5.99 11.341 6.326 11.677 6.74 11.677H6.75C6.94891 11.677 7.13968 11.598 7.28033 11.4573C7.42098 11.3167 7.5 11.1259 7.5 10.927V10.917C7.5 10.7181 7.42098 10.5273 7.28033 10.3867C7.13968 10.246 6.94891 10.167 6.75 10.167H6.74ZM5.99 13.083C5.99 12.8841 6.06902 12.6933 6.20967 12.5527C6.35032 12.412 6.54109 12.333 6.74 12.333H6.75C6.94891 12.333 7.13968 12.412 7.28033 12.5527C7.42098 12.6933 7.5 12.8841 7.5 13.083V13.093C7.5 13.2919 7.42098 13.4827 7.28033 13.6233C7.13968 13.764 6.94891 13.843 6.75 13.843H6.74C6.54109 13.843 6.35032 13.764 6.20967 13.6233C6.06902 13.4827 5.99 13.2919 5.99 13.093V13.083ZM6.74 14.5C6.54109 14.5 6.35032 14.579 6.20967 14.7197C6.06902 14.8603 5.99 15.0511 5.99 15.25V15.26C5.99 15.674 6.326 16.01 6.74 16.01H6.75C6.94891 16.01 7.13968 15.931 7.28033 15.7903C7.42098 15.6497 7.5 15.4589 7.5 15.26V15.25C7.5 15.0511 7.42098 14.8603 7.28033 14.7197C7.13968 14.579 6.94891 14.5 6.75 14.5H6.74ZM8.157 8.75C8.157 8.55109 8.23602 8.36032 8.37667 8.21967C8.51732 8.07902 8.70809 8 8.907 8H8.917C9.11591 8 9.30668 8.07902 9.44733 8.21967C9.58798 8.36032 9.667 8.55109 9.667 8.75V8.76C9.667 8.95891 9.58798 9.14968 9.44733 9.29033C9.30668 9.43098 9.11591 9.51 8.917 9.51H8.907C8.70809 9.51 8.51732 9.43098 8.37667 9.29033C8.23602 9.14968 8.157 8.95891 8.157 8.76V8.75ZM8.907 10.167C8.70809 10.167 8.51732 10.246 8.37667 10.3867C8.23602 10.5273 8.157 10.7181 8.157 10.917V10.927C8.157 11.341 8.493 11.677 8.907 11.677H8.917C9.11591 11.677 9.30668 11.598 9.44733 11.4573C9.58798 11.3167 9.667 11.1259 9.667 10.927V10.917C9.667 10.7181 9.58798 10.5273 9.44733 10.3867C9.30668 10.246 9.11591 10.167 8.917 10.167H8.907ZM8.157 13.083C8.157 12.8841 8.23602 12.6933 8.37667 12.5527C8.51732 12.412 8.70809 12.333 8.907 12.333H8.917C9.11591 12.333 9.30668 12.412 9.44733 12.5527C9.58798 12.6933 9.667 12.8841 9.667 13.083V13.093C9.667 13.2919 9.58798 13.4827 9.44733 13.6233C9.30668 13.764 9.11591 13.843 8.917 13.843H8.907C8.70809 13.843 8.51732 13.764 8.37667 13.6233C8.23602 13.4827 8.157 13.2919 8.157 13.093V13.083ZM8.907 14.5C8.70809 14.5 8.51732 14.579 8.37667 14.7197C8.23602 14.8603 8.157 15.0511 8.157 15.25V15.26C8.157 15.674 8.493 16.01 8.907 16.01H8.917C9.11591 16.01 9.30668 15.931 9.44733 15.7903C9.58798 15.6497 9.667 15.4589 9.667 15.26V15.25C9.667 15.0511 9.58798 14.8603 9.44733 14.7197C9.30668 14.579 9.11591 14.5 8.917 14.5H8.907ZM10.327 8.75C10.327 8.55109 10.406 8.36032 10.5467 8.21967C10.6873 8.07902 10.8781 8 11.077 8H11.087C11.2859 8 11.4767 8.07902 11.6173 8.21967C11.758 8.36032 11.837 8.55109 11.837 8.75V8.76C11.837 8.95891 11.758 9.14968 11.6173 9.29033C11.4767 9.43098 11.2859 9.51 11.087 9.51H11.077C10.8781 9.51 10.6873 9.43098 10.5467 9.29033C10.406 9.14968 10.327 8.95891 10.327 8.76V8.75ZM11.077 10.167C10.8781 10.167 10.6873 10.246 10.5467 10.3867C10.406 10.5273 10.327 10.7181 10.327 10.917V10.927C10.327 11.341 10.663 11.677 11.077 11.677H11.087C11.2859 11.677 11.4767 11.598 11.6173 11.4573C11.758 11.3167 11.837 11.1259 11.837 10.927V10.917C11.837 10.7181 11.758 10.5273 11.6173 10.3867C11.4767 10.246 11.2859 10.167 11.087 10.167H11.077ZM10.327 13.083C10.327 12.8841 10.406 12.6933 10.5467 12.5527C10.6873 12.412 10.8781 12.333 11.077 12.333H11.087C11.2859 12.333 11.4767 12.412 11.6173 12.5527C11.758 12.6933 11.837 12.8841 11.837 13.083V13.093C11.837 13.2919 11.758 13.4827 11.6173 13.6233C11.4767 13.764 11.2859 13.843 11.087 13.843H11.077C10.8781 13.843 10.6873 13.764 10.5467 13.6233C10.406 13.4827 10.327 13.2919 10.327 13.093V13.083ZM11.077 14.5C10.8781 14.5 10.6873 14.579 10.5467 14.7197C10.406 14.8603 10.327 15.0511 10.327 15.25V15.26C10.327 15.674 10.663 16.01 11.077 16.01H11.087C11.2859 16.01 11.4767 15.931 11.6173 15.7903C11.758 15.6497 11.837 15.4589 11.837 15.26V15.25C11.837 15.0511 11.758 14.8603 11.6173 14.7197C11.4767 14.579 11.2859 14.5 11.087 14.5H11.077ZM12.5 8.75C12.5 8.55109 12.579 8.36032 12.7197 8.21967C12.8603 8.07902 13.0511 8 13.25 8H13.26C13.4589 8 13.6497 8.07902 13.7903 8.21967C13.931 8.36032 14.01 8.55109 14.01 8.75V8.76C14.01 8.95891 13.931 9.14968 13.7903 9.29033C13.6497 9.43098 13.4589 9.51 13.26 9.51H13.25C13.0511 9.51 12.8603 9.43098 12.7197 9.29033C12.579 9.14968 12.5 8.95891 12.5 8.76V8.75ZM13.25 10.167C13.0511 10.167 12.8603 10.246 12.7197 10.3867C12.579 10.5273 12.5 10.7181 12.5 10.917V10.927C12.5 11.341 12.836 11.677 13.25 11.677H13.26C13.4589 11.677 13.6497 11.598 13.7903 11.4573C13.931 11.3167 14.01 11.1259 14.01 10.927V10.917C14.01 10.7181 13.931 10.5273 13.7903 10.3867C13.6497 10.246 13.4589 10.167 13.26 10.167H13.25ZM13.25 12.333C13.4489 12.333 13.6397 12.412 13.7803 12.5527C13.921 12.6933 14 12.8841 14 13.083V15.25C14 15.4489 13.921 15.6397 13.7803 15.7803C13.6397 15.921 13.4489 16 13.25 16C13.0511 16 12.8603 15.921 12.7197 15.7803C12.579 15.6397 12.5 15.4489 12.5 15.25V13.083C12.5 12.8841 12.579 12.6933 12.7197 12.5527C12.8603 12.412 13.0511 12.333 13.25 12.333ZM6.75 4C6.55109 4 6.36032 4.07902 6.21967 4.21967C6.07902 4.36032 6 4.55109 6 4.75V5.25C6 5.664 6.336 6 6.75 6H13.25C13.4489 6 13.6397 5.92098 13.7803 5.78033C13.921 5.63968 14 5.44891 14 5.25V4.75C14 4.55109 13.921 4.36032 13.7803 4.21967C13.6397 4.07902 13.4489 4 13.25 4H6.75Z" fill="black" fill-opacity="0.3"/>
</svg>
