<svg width="40" height="40" viewBox="0 0 40 40" fill="none" xmlns="http://www.w3.org/2000/svg">
<path d="M14.0444 4C12.8377 4 11.7835 4.81123 11.4715 5.97656L10.9507 7.92188C9.99065 8.48854 9.28542 9.45521 9.05743 10.5885L8.02618 15.7396C8.01693 15.8267 8.00935 15.9129 8.00013 16C8.00004 16.0009 8.00022 16.0017 8.00013 16.0026V17.3333V21.3333L6.80743 21.9297C5.90342 22.3817 5.33347 23.3058 5.33347 24.3151V29.3333C5.33347 30.3186 5.87262 31.1685 6.6668 31.6302V33.3333C6.6668 34.8067 7.86013 36 9.33347 36C10.8068 36 12.0001 34.8067 12.0001 33.3333V32H28.0001V33.3333C28.0001 34.8067 29.1935 36 30.6668 36C32.1401 36 33.3335 34.8067 33.3335 33.3333V31.6302C34.1276 31.1685 34.6668 30.3186 34.6668 29.3333V24.3151C34.6668 23.3044 34.0968 22.3817 33.1928 21.9297L32.0001 21.3333V17.3333V16.0026C32 16.0017 32.0002 16.0009 32.0001 16C31.9909 15.9129 31.9833 15.8267 31.9741 15.7396L30.9428 10.5885C30.7162 9.45654 30.0096 8.49115 29.0496 7.92448L28.5288 5.97656C28.2168 4.8099 27.1613 4 25.9533 4H14.0444ZM20.0001 9.33333C23.6561 9.33333 26.0336 9.74454 27.3855 10.0885C27.8575 10.2099 28.2283 10.612 28.3283 11.112L29.3074 16H10.6928L11.672 11.112C11.772 10.6106 12.1414 10.2099 12.6147 10.0885C13.9667 9.74454 16.3441 9.33333 20.0001 9.33333ZM5.31263 11.9818C4.95947 11.9873 4.62292 12.1327 4.37685 12.3861C4.13078 12.6395 3.9953 12.9802 4.00013 13.3333V17.3333C3.99763 17.51 4.03028 17.6854 4.09616 17.8494C4.16205 18.0133 4.25986 18.1626 4.38392 18.2884C4.50798 18.4142 4.65581 18.5141 4.81882 18.5823C4.98183 18.6505 5.15677 18.6857 5.33347 18.6857C5.51017 18.6857 5.6851 18.6505 5.84811 18.5823C6.01112 18.5141 6.15895 18.4142 6.28301 18.2884C6.40707 18.1626 6.50489 18.0133 6.57077 17.8494C6.63666 17.6854 6.6693 17.51 6.6668 17.3333V13.3333C6.66924 13.1549 6.63587 12.9779 6.56864 12.8126C6.50142 12.6474 6.40173 12.4973 6.27545 12.3713C6.14918 12.2452 5.99891 12.1458 5.83352 12.0789C5.66814 12.012 5.49101 11.979 5.31263 11.9818ZM34.646 11.9818C34.2928 11.9873 33.9563 12.1327 33.7102 12.3861C33.4641 12.6395 33.3286 12.9802 33.3335 13.3333V17.3333C33.331 17.51 33.3636 17.6854 33.4295 17.8494C33.4954 18.0133 33.5932 18.1626 33.7173 18.2884C33.8413 18.4142 33.9891 18.5141 34.1522 18.5823C34.3152 18.6505 34.4901 18.6857 34.6668 18.6857C34.8435 18.6857 35.0184 18.6505 35.1814 18.5823C35.3445 18.5141 35.4923 18.4142 35.6163 18.2884C35.7404 18.1626 35.8382 18.0133 35.9041 17.8494C35.97 17.6854 36.0026 17.51 36.0001 17.3333V13.3333C36.0026 13.1549 35.9692 12.9779 35.902 12.8126C35.8348 12.6474 35.7351 12.4973 35.6088 12.3713C35.4825 12.2452 35.3322 12.1458 35.1669 12.0789C35.0015 12.012 34.8243 11.979 34.646 11.9818ZM17.3335 18.6667H22.6668C24.1401 18.6667 25.3335 19.86 25.3335 21.3333V28H14.6668V21.3333C14.6668 19.86 15.8601 18.6667 17.3335 18.6667ZM9.33347 25.3333H10.6668C11.4028 25.3333 12.0001 25.9307 12.0001 26.6667C12.0001 27.4027 11.4028 28 10.6668 28H9.33347C8.59747 28 8.00013 27.4027 8.00013 26.6667C8.00013 25.9307 8.59747 25.3333 9.33347 25.3333ZM29.3335 25.3333H30.6668C31.4028 25.3333 32.0001 25.9307 32.0001 26.6667C32.0001 27.4027 31.4028 28 30.6668 28H29.3335C28.5975 28 28.0001 27.4027 28.0001 26.6667C28.0001 25.9307 28.5975 25.3333 29.3335 25.3333Z" fill="black"/>
</svg>
