<svg width="40" height="40" viewBox="0 0 40 40" fill="none" xmlns="http://www.w3.org/2000/svg">
<path d="M20 4.00293C14.344 4.00293 12 7.63093 12 12.0029C12 13.4749 12.7031 14.9535 12.7031 14.9535C12.4205 15.1161 11.9556 15.6325 12.0729 16.5498C12.2916 18.2605 13.0332 18.6961 13.5052 18.7321C13.6852 20.3281 15.4 22.3697 16 22.667V25.3337C14.6667 29.3337 4 26.667 4 36.0003H9.83854C11.2119 32.4483 15.2453 29.8675 20 29.8675C24.7547 29.8675 28.7881 32.4483 30.1615 36.0003H36C36 26.667 25.3333 29.3337 24 25.3337V22.667C24.6 22.3697 26.3148 20.3281 26.4948 18.7321C26.9668 18.6961 27.7084 18.2605 27.9271 16.5498C28.0444 15.6311 27.5795 15.1161 27.2969 14.9535C27.2969 14.9535 28 13.6176 28 12.0029C28 8.7656 26.7293 6.00293 24 6.00293C24 6.00293 23.052 4.00293 20 4.00293ZM20 32.5342C16.836 32.5342 14.1046 33.9523 12.8073 36.0003H27.1927C25.8954 33.9523 23.164 32.5342 20 32.5342Z" fill="black" fill-opacity="0.6"/>
</svg>
