<svg width="40" height="40" viewBox="0 0 40 40" fill="none" xmlns="http://www.w3.org/2000/svg">
<path d="M19.9794 1.31559C19.6262 1.32111 19.2897 1.46653 19.0436 1.71992C18.7976 1.97331 18.6621 2.31398 18.6669 2.66715V5.33382H14.6669C13.2095 5.33382 12.0002 6.54307 12.0002 8.00049V9.33382H10.6669C9.20949 9.33382 8.00024 10.5431 8.00024 12.0005V16.55L5.02368 17.3703V17.3729C4.73258 17.4424 4.47335 17.6079 4.28771 17.8427C4.10207 18.0775 4.00081 18.3679 4.00024 18.6672C4.00024 18.9336 4.08006 19.1939 4.22941 19.4146L8.00024 25.3338V30.5005C8.44424 30.5978 8.90291 30.6672 9.33357 30.6672C10.7069 30.6672 12.3698 30.0024 12.8778 29.7557C13.9925 29.1984 15.3164 29.2026 16.4377 29.7479C16.9631 30.0039 18.6269 30.6672 20.0002 30.6672C21.3736 30.6672 23.0374 30.0039 23.5627 29.7479C24.6841 29.2026 26.008 29.197 27.1226 29.7557C27.6306 30.0024 29.2936 30.6672 30.6669 30.6672C31.0976 30.6672 31.5562 30.5978 32.0002 30.5005V25.3338L35.7685 19.4198C35.9197 19.1979 36.0005 18.9356 36.0002 18.6672C36.0003 18.3674 35.8993 18.0764 35.7136 17.8411C35.5279 17.6058 35.2683 17.4399 34.9768 17.3703L32.0002 16.55V12.0005C32.0002 10.5431 30.791 9.33382 29.3336 9.33382H28.0002V8.00049C28.0002 6.54307 26.791 5.33382 25.3336 5.33382H21.3336V2.66715C21.336 2.48877 21.3026 2.31171 21.2354 2.14645C21.1682 1.9812 21.0685 1.83111 20.9422 1.70509C20.816 1.57906 20.6657 1.47965 20.5003 1.41275C20.3349 1.34584 20.1578 1.31281 19.9794 1.31559ZM14.6669 8.00049H19.7763C19.9203 8.02429 20.0672 8.02429 20.2112 8.00049H25.3336V12.0005H29.3336V15.813L20.8804 13.4823L20.8778 13.4849C20.5958 13.3857 20.2992 13.3346 20.0002 13.3338C19.7013 13.3346 19.4046 13.3857 19.1226 13.4849L19.12 13.4823L10.6669 15.813V12.0005H14.6669V8.00049ZM10.6669 18.6672C11.4029 18.6672 12.0002 19.2645 12.0002 20.0005C12.0002 20.7365 11.4029 21.3338 10.6669 21.3338C9.93091 21.3338 9.33357 20.7365 9.33357 20.0005C9.33357 19.2645 9.93091 18.6672 10.6669 18.6672ZM29.3336 18.6672C30.0696 18.6672 30.6669 19.2645 30.6669 20.0005C30.6669 20.7365 30.0696 21.3338 29.3336 21.3338C28.5976 21.3338 28.0002 20.7365 28.0002 20.0005C28.0002 19.2645 28.5976 18.6672 29.3336 18.6672ZM3.95337 31.9927C3.6541 31.9995 3.36585 32.1069 3.135 32.2974C2.90414 32.488 2.74412 32.7507 2.68068 33.0432C2.61724 33.3357 2.65408 33.6411 2.78526 33.9102C2.91644 34.1792 3.13434 34.3963 3.40389 34.5265C3.40389 34.5265 6.22246 36.0005 9.33357 36.0005C11.929 36.0005 13.9453 35.1114 14.6669 34.7713C15.3885 35.1114 17.4048 36.0005 20.0002 36.0005C22.5957 36.0005 24.612 35.1114 25.3336 34.7713C26.0552 35.1114 28.0715 36.0005 30.6669 36.0005C33.778 36.0005 36.5966 34.5265 36.5966 34.5265C36.7533 34.4482 36.893 34.3398 37.0077 34.2076C37.1225 34.0753 37.2101 33.9217 37.2655 33.7555C37.3209 33.5894 37.343 33.4139 37.3306 33.2392C37.3182 33.0646 37.2715 32.894 37.1932 32.7374C37.1148 32.5807 37.0064 32.441 36.8741 32.3263C36.7418 32.2116 36.5882 32.124 36.422 32.0686C36.2559 32.0133 36.0804 31.9912 35.9057 32.0036C35.7311 32.016 35.5605 32.0628 35.4039 32.1411C35.4039 32.1411 32.8891 33.3338 30.6669 33.3338C28.4447 33.3338 25.9299 32.1411 25.9299 32.1411C25.7448 32.0485 25.5406 32.0003 25.3336 32.0003C25.1266 32.0003 24.9224 32.0485 24.7372 32.1411C24.7372 32.1411 22.2225 33.3338 20.0002 33.3338C17.778 33.3338 15.2633 32.1411 15.2633 32.1411C15.0781 32.0485 14.8739 32.0003 14.6669 32.0003C14.4599 32.0003 14.2557 32.0485 14.0706 32.1411C14.0706 32.1411 11.5558 33.3338 9.33357 33.3338C7.11135 33.3338 4.59659 32.1411 4.59659 32.1411C4.39801 32.0385 4.17683 31.9875 3.95337 31.9927Z" fill="black" fill-opacity="0.6"/>
</svg>
