<svg width="20" height="20" viewBox="0 0 20 20" fill="none" xmlns="http://www.w3.org/2000/svg">
<path d="M7.33317 1.33301C6.5965 1.33301 5.99984 1.92967 5.99984 2.66634V13.333C5.99984 14.0697 6.5965 14.6663 7.33317 14.6663H15.9998C16.7365 14.6663 17.3332 14.0697 17.3332 13.333V5.66634C17.3332 5.48967 17.2632 5.32032 17.1379 5.19499L13.4712 1.52832C13.3459 1.40299 13.1765 1.33301 12.9998 1.33301H7.33317ZM12.6665 2.60254L16.0636 5.99967H13.3332C12.9652 5.99967 12.6665 5.70101 12.6665 5.33301V2.60254ZM3.99984 4.66634C3.26317 4.66634 2.6665 5.26301 2.6665 5.99967V16.6663C2.6665 17.403 3.26317 17.9997 3.99984 17.9997H12.6665C13.4032 17.9997 13.9998 17.403 13.9998 16.6663V15.9997H7.33317C5.8625 15.9997 4.6665 14.8037 4.6665 13.333V4.66634H3.99984Z" fill="black"/>
</svg>
