<svg width="18" height="17" viewBox="0 0 18 17" fill="none" xmlns="http://www.w3.org/2000/svg">
<path d="M9.48854 14.4904C9.18506 14.3205 8.81512 14.3205 8.51165 14.4904L5.0143 16.4481C4.2697 16.8649 3.37875 16.2176 3.54502 15.3806L4.32602 11.4494C4.39379 11.1082 4.27945 10.7564 4.0241 10.5203L1.08106 7.79891C0.45453 7.21956 0.794809 6.17215 1.64221 6.07165L5.62261 5.59958C5.96795 5.55862 6.26721 5.3412 6.41288 5.02542L8.09205 1.38539C8.44948 0.610573 9.5507 0.610574 9.90813 1.38539L11.5873 5.02542C11.733 5.3412 12.0322 5.55862 12.3776 5.59958L16.358 6.07165C17.2054 6.17215 17.5457 7.21956 16.9191 7.79891L13.9761 10.5203C13.7207 10.7564 13.6064 11.1082 13.6742 11.4494L14.4552 15.3806C14.6214 16.2176 13.7305 16.8649 12.9859 16.4481L9.48854 14.4904Z" fill="black" fill-opacity="0.2"/>
</svg>
