<svg width="18" height="20" viewBox="0 0 18 20" fill="none" xmlns="http://www.w3.org/2000/svg">
<path fill-rule="evenodd" clip-rule="evenodd" d="M9 17C10.8565 17 12.637 16.2625 13.9497 14.9497C15.2625 13.637 16 11.8565 16 10C16 8.14348 15.2625 6.36301 13.9497 5.05025C12.637 3.7375 10.8565 3 9 3C7.14348 3 5.36301 3.7375 4.05025 5.05025C2.7375 6.36301 2 8.14348 2 10C2 11.8565 2.7375 13.637 4.05025 14.9497C5.36301 16.2625 7.14348 17 9 17ZM12.3749 8.41712C12.4255 8.34738 12.462 8.26833 12.4821 8.1845C12.5022 8.10067 12.5057 8.01369 12.4922 7.92854C12.4787 7.84339 12.4486 7.76173 12.4035 7.68822C12.3585 7.61471 12.2994 7.5508 12.2296 7.50012C12.1599 7.44945 12.0808 7.41301 11.997 7.39289C11.9132 7.37276 11.8262 7.36935 11.741 7.38283C11.6559 7.39632 11.5742 7.42645 11.5007 7.4715C11.4272 7.51654 11.3633 7.57563 11.3126 7.64538L8.265 11.8366L6.62 10.1916C6.55943 10.129 6.487 10.079 6.40691 10.0447C6.32683 10.0103 6.24071 9.99224 6.15358 9.99153C6.06644 9.99081 5.98003 10.0075 5.8994 10.0405C5.81876 10.0735 5.74552 10.1223 5.68393 10.1839C5.62234 10.2456 5.57365 10.3189 5.54069 10.3995C5.50773 10.4802 5.49116 10.5666 5.49196 10.6538C5.49276 10.7409 5.5109 10.827 5.54533 10.9071C5.57977 10.9871 5.62979 11.0595 5.6925 11.12L7.88 13.3075C7.94705 13.3746 8.02784 13.4263 8.11681 13.4592C8.20579 13.4921 8.30083 13.5052 8.39538 13.4978C8.48994 13.4904 8.58177 13.4626 8.66455 13.4163C8.74733 13.37 8.81908 13.3063 8.87488 13.2296L12.3749 8.41712Z" fill="black"/>
</svg>
