<svg width="20" height="20" viewBox="0 0 20 20" fill="none" xmlns="http://www.w3.org/2000/svg">
<path fill-rule="evenodd" clip-rule="evenodd" d="M3.43 2.524C5.60254 2.17455 7.79954 1.99932 10 2C12.236 2 14.43 2.18 16.57 2.524C18.007 2.755 19 4.014 19 5.426V10.574C19 11.987 18.007 13.244 16.57 13.476C14.8546 13.7521 13.1235 13.9194 11.387 13.977C11.1889 13.9819 11.0002 14.062 10.859 14.201L7.28 17.781C7.17505 17.8858 7.04138 17.9572 6.89589 17.986C6.7504 18.0149 6.59962 17.9999 6.46261 17.9431C6.32561 17.8863 6.20854 17.7901 6.12619 17.6667C6.04385 17.5433 5.99993 17.3983 6 17.25V13.807C5.14007 13.7241 4.28298 13.614 3.43 13.477C1.993 13.244 1 11.986 1 10.573V5.426C1 4.013 1.993 2.756 3.43 2.524Z" fill="black"/>
</svg>
