<svg width="20" height="20" viewBox="0 0 20 20" fill="none" xmlns="http://www.w3.org/2000/svg">
<path fill-rule="evenodd" clip-rule="evenodd" d="M10 18C12.1217 18 14.1566 17.1571 15.6569 15.6569C17.1571 14.1566 18 12.1217 18 10C18 7.87827 17.1571 5.84344 15.6569 4.34315C14.1566 2.84285 12.1217 2 10 2C7.87827 2 5.84344 2.84285 4.34315 4.34315C2.84285 5.84344 2 7.87827 2 10C2 12.1217 2.84285 14.1566 4.34315 15.6569C5.84344 17.1571 7.87827 18 10 18ZM10.75 6.75C10.75 6.55109 10.671 6.36032 10.5303 6.21967C10.3897 6.07902 10.1989 6 10 6C9.80109 6 9.61032 6.07902 9.46967 6.21967C9.32902 6.36032 9.25 6.55109 9.25 6.75V11.34L7.3 9.24C7.16474 9.09413 6.97707 9.00797 6.77828 9.00047C6.5795 8.99296 6.38587 9.06474 6.24 9.2C6.09413 9.33526 6.00797 9.52293 6.00047 9.72172C5.99297 9.9205 6.06474 10.1141 6.2 10.26L9.45 13.76C9.52021 13.8357 9.6053 13.8961 9.69994 13.9375C9.79458 13.9788 9.89673 14.0001 10 14.0001C10.1033 14.0001 10.2054 13.9788 10.3001 13.9375C10.3947 13.8961 10.4798 13.8357 10.55 13.76L13.8 10.26C13.9353 10.1141 14.007 9.9205 13.9995 9.72172C13.992 9.52293 13.9059 9.33526 13.76 9.2C13.6141 9.06474 13.4205 8.99296 13.2217 9.00047C13.0229 9.00797 12.8353 9.09413 12.7 9.24L10.75 11.34V6.75Z" fill="#F35B1A"/>
</svg>
