<svg width="20" height="20" viewBox="0 0 20 20" fill="none" xmlns="http://www.w3.org/2000/svg">
<path d="M17.5715 9.24209L17.0121 8.90668C16.7739 8.7639 16.6127 8.52819 16.5401 8.26048C16.5389 8.25556 16.5376 8.25063 16.5358 8.24571C16.4613 7.97554 16.4835 7.68751 16.6195 7.44196L16.9364 6.87145C17.2601 6.28802 16.8453 5.56981 16.1782 5.55874L15.5197 5.54766C15.2409 5.54273 14.9825 5.41903 14.7855 5.22209C14.7837 5.22025 14.7812 5.21779 14.7794 5.21594C14.5818 5.019 14.4581 4.76052 14.4538 4.48173L14.4428 3.82322C14.4311 3.15486 13.7129 2.74006 13.1295 3.06439L12.559 3.38134C12.314 3.51735 12.026 3.5395 11.7552 3.46504C11.7503 3.4638 11.7454 3.46257 11.7405 3.46073C11.4728 3.38749 11.2371 3.22686 11.0943 2.98869L10.7589 2.42926C10.4155 1.85691 9.58652 1.85691 9.24312 2.42926L8.90895 2.98623C8.76494 3.22625 8.52739 3.38811 8.25784 3.46196C8.25476 3.46257 8.2523 3.4638 8.24922 3.46442C7.97659 3.5395 7.68674 3.51735 7.43934 3.38011L6.8707 3.06439C6.28728 2.74006 5.56909 3.15486 5.55802 3.82199L5.54694 4.4805C5.54202 4.75929 5.41832 5.01777 5.22139 5.21471C5.21954 5.21656 5.21708 5.21902 5.21523 5.22086C5.0183 5.41842 4.75983 5.54212 4.48104 5.54643L3.82255 5.5575C3.15482 5.5692 2.74004 6.28741 3.06436 6.87084L3.3813 7.44134C3.5173 7.6869 3.53946 7.97431 3.46499 8.2451C3.46376 8.25002 3.46253 8.25494 3.46069 8.25987C3.38745 8.52758 3.22683 8.76329 2.98866 8.90607L2.42925 9.24148C1.85692 9.58489 1.85692 10.4145 2.42925 10.7573L2.98866 11.0933C3.22683 11.2361 3.38807 11.4718 3.46069 11.7395C3.46192 11.7444 3.46315 11.7494 3.46499 11.7543C3.53946 12.0251 3.5173 12.3125 3.3813 12.558L3.06436 13.1298C2.74065 13.7132 3.15544 14.4314 3.82255 14.4425L4.48104 14.4536C4.75983 14.4585 5.0183 14.5822 5.21523 14.7791C5.21708 14.781 5.21954 14.7834 5.22139 14.7853C5.41893 14.9822 5.54263 15.2407 5.54694 15.5195L5.55802 16.1774C5.56909 16.8445 6.28728 17.2593 6.8707 16.9356L7.44118 16.6187C7.68612 16.4827 7.97413 16.4605 8.24492 16.535C8.24984 16.5362 8.25476 16.5374 8.25969 16.5393C8.52739 16.6125 8.76309 16.7731 8.90587 17.0113L9.24127 17.5707C9.58467 18.1431 10.4136 18.1431 10.757 17.5707L11.0924 17.0113C11.2352 16.7731 11.4709 16.6119 11.7386 16.5393C11.7435 16.538 11.7485 16.5368 11.7534 16.535C12.0236 16.4605 12.3116 16.4827 12.5571 16.6187L13.1276 16.9356C13.711 17.2593 14.4292 16.8445 14.4403 16.1774L14.4514 15.5195C14.4563 15.2407 14.58 14.9822 14.7769 14.7853C14.7788 14.7834 14.7812 14.781 14.7831 14.7791C14.98 14.5816 15.2385 14.4579 15.5173 14.4536L16.1758 14.4425C16.8429 14.4314 17.2577 13.7132 16.9339 13.1298L16.617 12.5593C16.481 12.3137 16.4588 12.0263 16.5333 11.7555C16.5345 11.7506 16.5358 11.7457 16.5376 11.7407C16.6109 11.473 16.7715 11.2373 17.0096 11.0945L17.5691 10.7585C18.1432 10.4151 18.1432 9.58551 17.5715 9.24209ZM13.5122 8.58912L9.47513 12.6264C9.35943 12.7421 9.20312 12.8067 9.04003 12.8067C8.87695 12.8067 8.72002 12.7421 8.60493 12.6264L6.47991 10.5013C6.23928 10.2606 6.23928 9.87168 6.47991 9.63105C6.72053 9.39041 7.10948 9.39041 7.3501 9.63105L9.04003 11.321L12.642 7.7189C12.8827 7.47827 13.2716 7.47827 13.5122 7.7189C13.7529 7.95954 13.7529 8.34849 13.5122 8.58912Z" fill="#F35B1A"/>
</svg>
