<svg width="20" height="20" viewBox="0 0 20 20" fill="none" xmlns="http://www.w3.org/2000/svg">
<path fill-rule="evenodd" clip-rule="evenodd" d="M10 17.5C11.8565 17.5 13.637 16.7625 14.9497 15.4497C16.2625 14.137 17 12.3565 17 10.5C17 8.64348 16.2625 6.86301 14.9497 5.55025C13.637 4.2375 11.8565 3.5 10 3.5C8.14348 3.5 6.36301 4.2375 5.05025 5.55025C3.7375 6.86301 3 8.64348 3 10.5C3 12.3565 3.7375 14.137 5.05025 15.4497C6.36301 16.7625 8.14348 17.5 10 17.5ZM10.6562 6.125C10.6562 5.95095 10.5871 5.78403 10.464 5.66096C10.341 5.53789 10.174 5.46875 10 5.46875C9.82595 5.46875 9.65903 5.53789 9.53596 5.66096C9.41289 5.78403 9.34375 5.95095 9.34375 6.125V10.5C9.34375 10.8622 9.63775 11.1562 10 11.1562H13.5C13.674 11.1562 13.841 11.0871 13.964 10.964C14.0871 10.841 14.1562 10.674 14.1562 10.5C14.1562 10.326 14.0871 10.159 13.964 10.036C13.841 9.91289 13.674 9.84375 13.5 9.84375H10.6562V6.125Z" fill="black"/>
</svg>
