<svg width="21" height="20" viewBox="0 0 21 20" fill="none" xmlns="http://www.w3.org/2000/svg">
<path d="M10.5001 16.6664H18.0001M14.1468 3.01811C14.4786 2.68637 14.9285 2.5 15.3976 2.5C15.8668 2.5 16.3167 2.68637 16.6485 3.01811C16.9802 3.34985 17.1666 3.79979 17.1666 4.26895C17.1666 4.7381 16.9802 5.18804 16.6485 5.51978L6.64014 15.5289C6.44189 15.7272 6.19683 15.8722 5.92764 15.9506L3.53431 16.6489C3.4626 16.6699 3.38659 16.6711 3.31423 16.6526C3.24188 16.634 3.17583 16.5964 3.12302 16.5436C3.0702 16.4908 3.03255 16.4247 3.01401 16.3524C2.99547 16.28 2.99673 16.204 3.01764 16.1323L3.71598 13.7389C3.79449 13.4701 3.93952 13.2253 4.13764 13.0273L14.1468 3.01811Z" stroke="black" stroke-width="2" stroke-linecap="round" stroke-linejoin="round"/>
</svg>
