<svg width="20" height="20" viewBox="0 0 20 20" fill="none" xmlns="http://www.w3.org/2000/svg">
<path d="M7.33464 1.33594C6.59797 1.33594 6.0013 1.9326 6.0013 2.66927V13.3359C6.0013 14.0726 6.59797 14.6693 7.33464 14.6693H16.0013C16.738 14.6693 17.3346 14.0726 17.3346 13.3359V5.66927C17.3346 5.4926 17.2647 5.32325 17.1393 5.19792L13.4727 1.53125C13.3473 1.40592 13.178 1.33594 13.0013 1.33594H7.33464ZM12.668 2.60547L16.0651 6.0026H13.3346C12.9666 6.0026 12.668 5.70394 12.668 5.33594V2.60547ZM4.0013 4.66927C3.26464 4.66927 2.66797 5.26594 2.66797 6.0026V16.6693C2.66797 17.4059 3.26464 18.0026 4.0013 18.0026H12.668C13.4046 18.0026 14.0013 17.4059 14.0013 16.6693V16.0026H7.33464C5.86397 16.0026 4.66797 14.8066 4.66797 13.3359V4.66927H4.0013Z" fill="black"/>
</svg>
