<svg width="20" height="20" viewBox="0 0 20 20" fill="none" xmlns="http://www.w3.org/2000/svg">
<path d="M2.63315 3.00006C2.55043 2.99887 2.4683 3.01445 2.39153 3.04589C2.31477 3.07734 2.2449 3.12402 2.18599 3.18323C2.12708 3.24244 2.0803 3.313 2.04837 3.3908C2.01644 3.4686 2 3.55209 2 3.63642C2 3.72076 2.01644 3.80425 2.04837 3.88205C2.0803 3.95985 2.12708 4.03041 2.18599 4.08962C2.2449 4.14882 2.31477 4.19551 2.39153 4.22695C2.4683 4.2584 2.55043 4.27398 2.63315 4.27279H3.13305L7.62722 10H11.3728L15.867 4.27279H16.3669C16.4496 4.27398 16.5317 4.2584 16.6085 4.22695C16.6852 4.19551 16.7551 4.14882 16.814 4.08962C16.8729 4.03041 16.9197 3.95985 16.9516 3.88205C16.9836 3.80425 17 3.72076 17 3.63642C17 3.55209 16.9836 3.4686 16.9516 3.3908C16.9197 3.313 16.8729 3.24244 16.814 3.18323C16.7551 3.12402 16.6852 3.07734 16.6085 3.04589C16.5317 3.01445 16.4496 2.99887 16.3669 3.00006H2.63315ZM7.62722 11.2728V17L11.3728 15.7273V11.2728H7.62722Z" fill="black"/>
</svg>
