<svg width="21" height="22" viewBox="0 0 21 22" fill="none" xmlns="http://www.w3.org/2000/svg">
<path d="M16.625 6.625H8.75" stroke="black" stroke-width="2" stroke-linecap="round" stroke-linejoin="round"/>
<path d="M13.125 14.5H5.25" stroke="black" stroke-width="2" stroke-linecap="round" stroke-linejoin="round"/>
<path d="M14.875 17.125C16.3247 17.125 17.5 15.9497 17.5 14.5C17.5 13.0503 16.3247 11.875 14.875 11.875C13.4253 11.875 12.25 13.0503 12.25 14.5C12.25 15.9497 13.4253 17.125 14.875 17.125Z" fill="black"/>
<path d="M6.125 9.25C7.57475 9.25 8.75 8.07475 8.75 6.625C8.75 5.17525 7.57475 4 6.125 4C4.67525 4 3.5 5.17525 3.5 6.625C3.5 8.07475 4.67525 9.25 6.125 9.25Z" fill="black"/>
</svg>
