<svg width="26" height="26" viewBox="0 0 26 26" fill="none" xmlns="http://www.w3.org/2000/svg">
<path fill-rule="evenodd" clip-rule="evenodd" d="M20.3089 5.68909C19.5775 4.95795 18.5857 4.54722 17.5516 4.54722C16.5175 4.54722 15.5257 4.95795 14.7943 5.68909L5.6943 14.7891C4.98371 15.5245 4.59037 16.5095 4.59902 17.5321C4.60766 18.5547 5.01759 19.5329 5.74051 20.2562C6.46343 20.9795 7.44151 21.3898 8.46407 21.399C9.48664 21.4081 10.4719 21.0152 11.2076 20.305H11.2089L11.855 19.655C12.0383 19.4767 12.2843 19.3775 12.54 19.3789C12.7957 19.3802 13.0406 19.4819 13.222 19.6621C13.4034 19.8423 13.5068 20.0866 13.5098 20.3423C13.5128 20.598 13.4153 20.8446 13.2382 21.0291L12.5908 21.6804L12.5882 21.683C11.4911 22.7801 10.0031 23.3964 8.4516 23.3964C6.90007 23.3964 5.41209 22.7801 4.315 21.683C3.2179 20.5859 2.60156 19.0979 2.60156 17.5464C2.60156 15.9949 3.2179 14.5069 4.315 13.4098L13.415 4.30979C14.5114 3.212 15.999 2.59473 17.5505 2.59375C19.102 2.59278 20.5904 3.20818 21.6882 4.30459C22.786 5.40099 23.4033 6.88858 23.4042 8.44011C23.4052 9.99164 22.7898 11.48 21.6934 12.5778L17.2019 17.1967C16.8883 17.5274 16.5116 17.792 16.0941 17.9747C15.6766 18.1575 15.2267 18.2548 14.771 18.2608C14.3152 18.2669 13.8629 18.1816 13.4407 18.01C13.0185 17.8384 12.6349 17.5839 12.3126 17.2617C11.9904 16.9394 11.7359 16.5558 11.5643 16.1336C11.3927 15.7114 11.3074 15.259 11.3134 14.8033C11.3195 14.3476 11.4168 13.8977 11.5995 13.4802C11.7823 13.0627 12.0469 12.686 12.3776 12.3724L16.8626 7.88609C16.9525 7.79292 17.06 7.7186 17.179 7.66744C17.2979 7.61629 17.4258 7.58933 17.5553 7.58814C17.6847 7.58696 17.8131 7.61157 17.933 7.66054C18.0528 7.7095 18.1617 7.78185 18.2533 7.87335C18.3449 7.96485 18.4174 8.07368 18.4664 8.19348C18.5155 8.31328 18.5402 8.44165 18.5392 8.57111C18.5381 8.70057 18.5113 8.82853 18.4602 8.9475C18.4092 9.06648 18.335 9.1741 18.2419 9.26409L13.7569 13.7504C13.6207 13.8859 13.5126 14.0468 13.4387 14.2241C13.3647 14.4013 13.3264 14.5914 13.3259 14.7835C13.3255 14.9755 13.3628 15.1658 13.4359 15.3434C13.5089 15.521 13.6162 15.6825 13.7517 15.8187C13.8872 15.9548 14.0481 16.063 14.2254 16.1369C14.4026 16.2109 14.5927 16.2492 14.7848 16.2496C14.9768 16.2501 15.1671 16.2128 15.3447 16.1397C15.5224 16.0667 15.6838 15.9594 15.82 15.8239L20.3102 11.205C21.0413 10.4736 21.4521 9.48183 21.4521 8.44769C21.4521 7.41355 21.0413 6.42174 20.3102 5.69039L20.3089 5.68909Z" fill="black" fill-opacity="0.4"/>
</svg>
