<svg width="46" height="46" viewBox="0 0 46 46" fill="none" xmlns="http://www.w3.org/2000/svg">
<path d="M1 9C1 4.58172 4.58172 1 9 1H37C41.4183 1 45 4.58172 45 9V37C45 41.4183 41.4183 45 37 45H9C4.58172 45 1 41.4183 1 37V9Z" fill="#E05050"/>
<path d="M9 0.5C4.30558 0.5 0.5 4.30558 0.5 9V37C0.5 41.6944 4.30558 45.5 9 45.5H37C41.6944 45.5 45.5 41.6944 45.5 37V9C45.5 4.30558 41.6944 0.5 37 0.5H9Z" stroke="black" stroke-opacity="0.1"/>
<path d="M22.5594 17.9642H25.259L25.4346 17.8372L25.9378 16.2993L26.1135 16.1724H28.1807L28.4391 16.2234L29.0976 16.4988L29.3197 16.4602L31.0786 14.8452L31.0548 14.7036L29.093 13.8796L28.9491 13.6972L28.6748 11.9484L28.778 11.868L30.7386 12.6908L30.8418 12.6103L30.5244 10.5918L30.5958 10.3629L31.0276 9.91184L31.0038 9.74864L30.4451 9.41997L30.2037 9.39844L27.537 10.364L27.2854 10.3584L26.4977 10.0274L26.3322 10.1022L26.2291 10.4218L26.2914 10.6315L26.6847 10.9477L26.696 11.1279L26.4331 11.392L26.2144 11.4339L25.4052 11.0939L25.3224 10.9137L25.6772 9.82684L25.5967 9.64777L25.0924 9.43697L24.9269 9.51177L24.4373 11.0055L24.4305 11.2628L24.7422 12.4562L24.7354 12.7134L23.6474 16.0443L23.4717 16.1724H22.8846L22.7271 16.305L22.4517 17.8316L22.5594 17.9642ZM28.2657 16.7073H26.5022L26.3266 16.8342L26.0002 17.8361L26.092 17.9642H28.4629L28.5762 17.8304L28.4198 16.8388L28.2657 16.7073ZM31.3472 11.2616L31.4844 11.3296L32.0714 11.0044L32.1032 10.8355L31.6226 10.2484L31.4447 10.2416L31.3166 10.3754L31.243 10.6043M31.4764 12.0856L31.609 12.9299L31.7541 13.1135L33.2059 13.7232L33.3782 13.9012L33.5266 14.2808L33.7102 14.3987L34.0502 14.3783L34.2248 14.2423L34.6996 12.7939L34.6339 12.5842L33.8598 12.0028L33.7374 11.7898L33.6434 10.8865L33.513 10.8162L31.5728 11.8884L31.4764 12.0856ZM36.2296 12.2476L34.5092 11.2492L34.4061 11.3149L34.4378 11.6175L34.5568 11.8317L35.4102 12.4856L35.4748 12.6953L34.7631 14.8758L34.5874 15.0118L32.2698 15.149L32.0658 15.2725L30.9256 17.1244L30.9789 17.2898L31.4968 17.5086L31.5773 17.6865L31.0877 19.1678L30.9211 19.2426L29.5588 18.6714L29.3016 18.6204H28.8358L28.7224 18.753L29.169 21.5874L29.3061 21.7858L31.2611 22.8874L31.2441 22.961L29.535 23.0596L29.3458 23.1888L27.6922 26.9368L27.6061 27.1884L25.82 34.8021L25.8619 35.0424L26.2257 35.5852L26.1668 35.6952H25.7848L25.5752 35.5852L25.2873 35.1557L25.2397 34.9132L26.7924 27.3017L26.7572 27.0501L26.007 25.5892L26.033 25.3671L28.4946 22.5224L28.5604 22.2878L28.0039 18.753L27.8498 18.6192H22.5594L22.4256 18.7552V18.9332L22.3282 19.1587L13.7103 27.1464L13.4791 27.2371H12.3526L12.1191 27.3278L11.5411 27.8661L11.5116 28.0735L12.5747 29.9118L12.5985 30.1554L10.6016 35.8935L10.6254 36.136L10.8271 36.4806L11.0288 36.5984H14.9604L15.1202 36.4658L15.2063 36.0216L15.153 35.7813L14.3257 34.6457L14.3756 34.5006L19.3373 33.0046L19.369 32.872L17.8878 31.4225L17.677 31.3964L13.3873 33.968L13.2071 34.155L12.433 35.5784L12.237 35.6963H11.9117L11.8312 35.575L13.5108 31.7466L13.6967 31.6038L17.3166 31.0168L17.4707 30.8626L18.0838 27.0682L18.0045 26.8461L17.2486 26.1774L17.1726 25.9564L17.261 25.5099L17.3857 25.468L18.7151 26.6432L18.8386 26.8654L19.7725 32.4527L19.8564 32.4652L21.2016 29.8494L21.3966 29.7542L23.0172 30.0466L23.2031 29.948L23.7267 28.6957L23.7562 28.4407L22.6591 21.8912L22.7169 21.8651L25.1456 25.0056L25.1751 25.2345L24.2662 27.4037L24.2696 27.6496L25.1071 29.4686L25.1388 29.7214L23.9398 35.8867L23.9806 36.1349L24.1846 36.4794L24.384 36.5984H28.2702L28.4448 36.4704L28.5921 36.0193L28.5502 35.7858L27.078 33.9521L27.0508 33.7266L28.8426 29.9843L28.9174 29.7293L29.2585 26.9674L29.3594 26.7271L32.0227 23.3996L32.1054 23.1605L32.0318 20.283L31.9479 20.0404L31.7144 19.7231L31.6759 19.4885L32.1825 17.9415L32.1564 17.6978L31.8516 17.1618L31.9082 16.9929L35.1824 15.5445L35.3479 15.3643L36.3022 12.4437L36.2296 12.2476Z" fill="white"/>
</svg>
