<svg width="46" height="46" viewBox="0 0 46 46" fill="none" xmlns="http://www.w3.org/2000/svg">
<path d="M1 9C1 4.58172 4.58172 1 9 1H37C41.4183 1 45 4.58172 45 9V37C45 41.4183 41.4183 45 37 45H9C4.58172 45 1 41.4183 1 37V9Z" fill="#F35B1A"/>
<path d="M9 0.5C4.30558 0.5 0.5 4.30558 0.5 9V37C0.5 41.6944 4.30558 45.5 9 45.5H37C41.6944 45.5 45.5 41.6944 45.5 37V9C45.5 4.30558 41.6944 0.5 37 0.5H9Z" stroke="black" stroke-opacity="0.1"/>
<path d="M17.6938 11.2656L7 21.9323H10.0333L19.2083 12.7781L28.3833 21.9323H39L28.3083 11.2656H17.6938ZM19.2083 15.7906L12.3479 22.6365V28.6927C12.3479 29.6708 13.1406 30.4656 14.1188 30.4656H21.9333L28.3333 36.8656V30.4656H31.8688C32.8469 30.4656 33.6417 29.6708 33.6417 28.6927V24.0656H27.5021L19.2083 15.7906Z" fill="white"/>
</svg>
