<svg width="16" height="16" viewBox="0 0 16 16" fill="none" xmlns="http://www.w3.org/2000/svg">
<path d="M9.5 8.5C9.5 8.89782 9.34196 9.27936 9.06066 9.56066C8.77936 9.84196 8.39782 10 8 10C7.60218 10 7.22064 9.84196 6.93934 9.56066C6.65804 9.27936 6.5 8.89782 6.5 8.5C6.5 8.10218 6.65804 7.72064 6.93934 7.43934C7.22064 7.15804 7.60218 7 8 7C8.39782 7 8.77936 7.15804 9.06066 7.43934C9.34196 7.72064 9.5 8.10218 9.5 8.5Z" fill="white"/>
<path fill-rule="evenodd" clip-rule="evenodd" d="M2.5 5C2.10218 5 1.72064 5.15804 1.43934 5.43934C1.15804 5.72064 1 6.10218 1 6.5V11.5C1 11.8978 1.15804 12.2794 1.43934 12.5607C1.72064 12.842 2.10218 13 2.5 13H13.5C13.8978 13 14.2794 12.842 14.5607 12.5607C14.842 12.2794 15 11.8978 15 11.5V6.5C15 6.10218 14.842 5.72064 14.5607 5.43934C14.2794 5.15804 13.8978 5 13.5 5H12.621C12.2233 4.99965 11.842 4.84138 11.561 4.56L10.439 3.44C10.1582 3.15886 9.77734 3.00062 9.38 3H6.62C6.22231 3.00035 5.84103 3.15862 5.56 3.44L4.439 4.56C4.15821 4.84114 3.77734 4.99938 3.38 5H2.5ZM11 8.5C11 9.29565 10.6839 10.0587 10.1213 10.6213C9.55871 11.1839 8.79565 11.5 8 11.5C7.20435 11.5 6.44129 11.1839 5.87868 10.6213C5.31607 10.0587 5 9.29565 5 8.5C5 7.70435 5.31607 6.94129 5.87868 6.37868C6.44129 5.81607 7.20435 5.5 8 5.5C8.79565 5.5 9.55871 5.81607 10.1213 6.37868C10.6839 6.94129 11 7.70435 11 8.5Z" fill="white"/>
</svg>
