<svg width="24" height="24" viewBox="0 0 24 24" fill="none" xmlns="http://www.w3.org/2000/svg">
<path d="M2.05078 2.05078H4.05078L6.71078 14.4708C6.80836 14.9256 7.06145 15.3323 7.42649 15.6206C7.79153 15.909 8.24569 16.0611 8.71078 16.0508H18.4908C18.946 16.05 19.3873 15.8941 19.7418 15.6086C20.0964 15.3232 20.3429 14.9253 20.4408 14.4808L22.0908 7.05078H5.12078M9.00078 21.0008C9.00078 21.5531 8.55307 22.0008 8.00078 22.0008C7.4485 22.0008 7.00078 21.5531 7.00078 21.0008C7.00078 20.4485 7.4485 20.0008 8.00078 20.0008C8.55307 20.0008 9.00078 20.4485 9.00078 21.0008ZM20.0008 21.0008C20.0008 21.5531 19.5531 22.0008 19.0008 22.0008C18.4485 22.0008 18.0008 21.5531 18.0008 21.0008C18.0008 20.4485 18.4485 20.0008 19.0008 20.0008C19.5531 20.0008 20.0008 20.4485 20.0008 21.0008Z" stroke="black" stroke-width="2" stroke-linecap="round" stroke-linejoin="round"/>
</svg>
