<svg width="21" height="20" viewBox="0 0 21 20" fill="none" xmlns="http://www.w3.org/2000/svg">
<path fill-rule="evenodd" clip-rule="evenodd" d="M3 5.41667C3 3.22899 3.02342 2.5 5.91667 2.5C8.80991 2.5 8.83333 3.22899 8.83333 5.41667C8.83333 7.60434 8.84256 8.33333 5.91667 8.33333C2.99077 8.33333 3 7.60434 3 5.41667Z" fill="black"/>
<path fill-rule="evenodd" clip-rule="evenodd" d="M12.166 5.41667C12.166 3.22899 12.1894 2.5 15.0827 2.5C17.9759 2.5 17.9993 3.22899 17.9993 5.41667C17.9993 7.60434 18.0086 8.33333 15.0827 8.33333C12.1568 8.33333 12.166 7.60434 12.166 5.41667Z" fill="black"/>
<path fill-rule="evenodd" clip-rule="evenodd" d="M3 14.5837C3 12.396 3.02342 11.667 5.91667 11.667C8.80991 11.667 8.83333 12.396 8.83333 14.5837C8.83333 16.7713 8.84256 17.5003 5.91667 17.5003C2.99077 17.5003 3 16.7713 3 14.5837Z" fill="black"/>
<path fill-rule="evenodd" clip-rule="evenodd" d="M12.166 14.5837C12.166 12.396 12.1894 11.667 15.0827 11.667C17.9759 11.667 17.9993 12.396 17.9993 14.5837C17.9993 16.7713 18.0086 17.5003 15.0827 17.5003C12.1568 17.5003 12.166 16.7713 12.166 14.5837Z" fill="black"/>
</svg>
