<svg width="21" height="20" viewBox="0 0 21 20" fill="none" xmlns="http://www.w3.org/2000/svg">
<path fill-rule="evenodd" clip-rule="evenodd" d="M3 5.41667C3 3.22899 3.02342 2.5 5.91667 2.5C8.80991 2.5 8.83333 3.22899 8.83333 5.41667C8.83333 7.60434 8.84256 8.33333 5.91667 8.33333C2.99077 8.33333 3 7.60434 3 5.41667Z" fill="black"/>
<path fill-rule="evenodd" clip-rule="evenodd" d="M12.1667 5.41667C12.1667 3.22899 12.1902 2.5 15.0834 2.5C17.9767 2.5 18.0001 3.22899 18.0001 5.41667C18.0001 7.60434 18.0093 8.33333 15.0834 8.33333C12.1575 8.33333 12.1667 7.60434 12.1667 5.41667Z" fill="black"/>
<path fill-rule="evenodd" clip-rule="evenodd" d="M3 14.5827C3 12.395 3.02342 11.666 5.91667 11.666C8.80991 11.666 8.83333 12.395 8.83333 14.5827C8.83333 16.7704 8.84256 17.4993 5.91667 17.4993C2.99077 17.4993 3 16.7704 3 14.5827Z" fill="black"/>
<path fill-rule="evenodd" clip-rule="evenodd" d="M12.1667 14.5827C12.1667 12.395 12.1902 11.666 15.0834 11.666C17.9767 11.666 18.0001 12.395 18.0001 14.5827C18.0001 16.7704 18.0093 17.4993 15.0834 17.4993C12.1575 17.4993 12.1667 16.7704 12.1667 14.5827Z" fill="black"/>
</svg>
