<svg width="16" height="16" viewBox="0 0 16 16" fill="none" xmlns="http://www.w3.org/2000/svg">
<path fill-rule="evenodd" clip-rule="evenodd" d="M3.261 1.26583C3.261 1.04821 3.35465 0.839511 3.52134 0.685635C3.68804 0.531759 3.91414 0.445313 4.14988 0.445312C4.38563 0.445313 4.61172 0.531759 4.77842 0.685635C4.94512 0.839511 5.03877 1.04821 5.03877 1.26583V2.63335H10.9647V1.26583C10.9647 1.04821 11.0583 0.839511 11.225 0.685635C11.3917 0.531759 11.6178 0.445313 11.8536 0.445312C12.0893 0.445313 12.3154 0.531759 12.4821 0.685635C12.6488 0.839511 12.7425 1.04821 12.7425 1.26583V2.63335C13.3711 2.63335 13.974 2.86387 14.4186 3.27421C14.8631 3.68454 15.1128 4.24108 15.1128 4.82138V12.4795C15.1128 13.0598 14.8631 13.6163 14.4186 14.0267C13.974 14.437 13.3711 14.6675 12.7425 14.6675H3.261C2.63233 14.6675 2.02942 14.437 1.58489 14.0267C1.14036 13.6163 0.890625 13.0598 0.890625 12.4795V4.82138C0.890625 4.24108 1.14036 3.68454 1.58489 3.27421C2.02942 2.86387 2.63233 2.63335 3.261 2.63335V1.26583ZM3.85359 5.9154C3.53926 5.9154 3.2378 6.03066 3.01554 6.23583C2.79327 6.441 2.6684 6.71926 2.6684 7.00941V11.9325C2.6684 12.2226 2.79327 12.5009 3.01554 12.7061C3.2378 12.9112 3.53926 13.0265 3.85359 13.0265H12.1499C12.4642 13.0265 12.7657 12.9112 12.9879 12.7061C13.2102 12.5009 13.3351 12.2226 13.3351 11.9325V7.00941C13.3351 6.71926 13.2102 6.441 12.9879 6.23583C12.7657 6.03066 12.4642 5.9154 12.1499 5.9154H3.85359Z" fill="black" fill-opacity="0.9"/>
</svg>
