<svg width="24" height="24" viewBox="0 0 24 24" fill="none" xmlns="http://www.w3.org/2000/svg">
<path d="M4.63636 3C3.73227 3 3 3.73227 3 4.63636V19.3636C3 20.2677 3.73227 21 4.63636 21H5.90998C5.62852 20.5165 5.45455 19.9625 5.45455 19.3636V4.63636C5.45455 4.03745 5.62852 3.48355 5.90998 3H4.63636ZM8.72727 3C7.82318 3 7.09091 3.73227 7.09091 4.63636V19.3636C7.09091 20.2677 7.82318 21 8.72727 21H19.3636C20.2677 21 21 20.2677 21 19.3636V8.31818C21 8.10136 20.9141 7.89352 20.7603 7.7397L16.2603 3.2397C16.1065 3.08588 15.8986 3 15.6818 3H8.72727ZM15.2727 4.55806L19.4419 8.72727H16.0909C15.6393 8.72727 15.2727 8.36073 15.2727 7.90909V4.55806ZM11.1818 12H16.9091C17.3607 12 17.7273 12.3665 17.7273 12.8182C17.7273 13.2698 17.3607 13.6364 16.9091 13.6364H11.1818C10.7302 13.6364 10.3636 13.2698 10.3636 12.8182C10.3636 12.3665 10.7302 12 11.1818 12ZM11.1818 15.2727H15.2727C15.7244 15.2727 16.0909 15.6393 16.0909 16.0909C16.0909 16.5425 15.7244 16.9091 15.2727 16.9091H11.1818C10.7302 16.9091 10.3636 16.5425 10.3636 16.0909C10.3636 15.6393 10.7302 15.2727 11.1818 15.2727Z" fill="black"/>
</svg>
