<svg width="14" height="15" viewBox="0 0 14 15" fill="none" xmlns="http://www.w3.org/2000/svg">
<path d="M7.47479 2.45311C7.41351 2.38892 7.33985 2.33782 7.25826 2.30291C7.17667 2.268 7.08885 2.25 7.0001 2.25C6.91136 2.25 6.82354 2.268 6.74195 2.30291C6.66036 2.33782 6.5867 2.38892 6.52542 2.45311L1.93167 7.26561C1.84293 7.35852 1.78342 7.47544 1.76051 7.60187C1.73761 7.72829 1.75232 7.85865 1.80282 7.9768C1.85331 8.09494 1.93738 8.19566 2.04459 8.26646C2.1518 8.33727 2.27744 8.37505 2.40592 8.37511H3.49967V11.8751C3.49967 12.1072 3.59186 12.3297 3.75595 12.4938C3.92004 12.6579 4.1426 12.7501 4.37467 12.7501H5.24967C5.48173 12.7501 5.70429 12.6579 5.86839 12.4938C6.03248 12.3297 6.12467 12.1072 6.12467 11.8751V11.0001C6.12467 10.768 6.21686 10.5455 6.38095 10.3814C6.54504 10.2173 6.7676 10.1251 6.99967 10.1251C7.23173 10.1251 7.45429 10.2173 7.61839 10.3814C7.78248 10.5455 7.87467 10.768 7.87467 11.0001V11.8751C7.87467 12.1072 7.96686 12.3297 8.13095 12.4938C8.29504 12.6579 8.5176 12.7501 8.74967 12.7501H9.62467C9.85673 12.7501 10.0793 12.6579 10.2434 12.4938C10.4075 12.3297 10.4997 12.1072 10.4997 11.8751V8.37511H11.5934C11.722 8.37522 11.8477 8.33756 11.9551 8.26682C12.0624 8.19608 12.1466 8.09537 12.1972 7.9772C12.2478 7.85902 12.2626 7.72859 12.2397 7.60208C12.2169 7.47558 12.1573 7.35858 12.0685 7.26561L7.47479 2.45311Z" fill="black" fill-opacity="0.6"/>
</svg>
