<svg width="17" height="16" viewBox="0 0 17 16" fill="none" xmlns="http://www.w3.org/2000/svg">
<path d="M4.10089 1.701C4.22037 1.54187 4.27175 1.3418 4.24371 1.14479C4.21567 0.947784 4.11052 0.769983 3.95139 0.650503C3.8726 0.591343 3.78293 0.548281 3.68749 0.523776C3.59206 0.499272 3.49273 0.493805 3.39518 0.507687C3.19817 0.535724 3.02037 0.640873 2.90089 0.800003C2.39372 1.4749 2.01322 2.23624 1.77789 3.047C1.74734 3.14245 1.73623 3.24304 1.7452 3.34286C1.75418 3.44267 1.78307 3.53967 1.83017 3.62813C1.87726 3.71658 1.94161 3.79471 2.01941 3.85788C2.0972 3.92105 2.18687 3.96799 2.28311 3.99593C2.37935 4.02387 2.48022 4.03223 2.57974 4.02053C2.67927 4.00883 2.77545 3.97731 2.86259 3.92781C2.94973 3.87832 3.02607 3.81187 3.08709 3.73238C3.14812 3.65289 3.19259 3.56197 3.21789 3.465C3.40489 2.821 3.70689 2.225 4.10089 1.701ZM14.1009 0.800003C14.0418 0.72121 13.9678 0.654828 13.883 0.604647C13.7983 0.554466 13.7045 0.52147 13.607 0.507541C13.41 0.47941 13.21 0.530656 13.0509 0.650003C12.8918 0.76935 12.7866 0.947024 12.7584 1.14394C12.7303 1.34085 12.7815 1.54087 12.9009 1.7C13.2996 2.23005 13.5988 2.82808 13.7839 3.465C13.8092 3.56197 13.8537 3.65289 13.9147 3.73238C13.9757 3.81187 14.0521 3.87832 14.1392 3.92781C14.2263 3.97731 14.3225 4.00883 14.422 4.02053C14.5216 4.03223 14.6224 4.02387 14.7187 3.99593C14.8149 3.96799 14.9046 3.92105 14.9824 3.85788C15.0602 3.79471 15.1245 3.71658 15.1716 3.62813C15.2187 3.53967 15.2476 3.44267 15.2566 3.34286C15.2656 3.24304 15.2544 3.14245 15.2239 3.047C14.9886 2.23624 14.6081 1.4749 14.1009 0.800003Z" fill="white"/>
<path fill-rule="evenodd" clip-rule="evenodd" d="M8.5 1C9.56087 1 10.5783 1.42143 11.3284 2.17157C12.0786 2.92172 12.5 3.93913 12.5 5V7.379C12.5 7.777 12.658 8.158 12.94 8.439L14.207 9.707C14.3945 9.89449 14.4999 10.1488 14.5 10.414V11C14.5 11.2652 14.3946 11.5196 14.2071 11.7071C14.0196 11.8946 13.7652 12 13.5 12H11.5C11.5 12.7956 11.1839 13.5587 10.6213 14.1213C10.0587 14.6839 9.29565 15 8.5 15C7.70435 15 6.94129 14.6839 6.37868 14.1213C5.81607 13.5587 5.5 12.7956 5.5 12H3.5C3.23478 12 2.98043 11.8946 2.79289 11.7071C2.60536 11.5196 2.5 11.2652 2.5 11V10.414C2.50006 10.1488 2.60545 9.89449 2.793 9.707L4.06 8.44C4.34138 8.15897 4.49965 7.77769 4.5 7.38V5C4.5 3.93913 4.92143 2.92172 5.67157 2.17157C6.42172 1.42143 7.43913 1 8.5 1ZM8.5 13.5C8.10218 13.5 7.72064 13.342 7.43934 13.0607C7.15804 12.7794 7 12.3978 7 12H10C10 12.3978 9.84196 12.7794 9.56066 13.0607C9.27936 13.342 8.89782 13.5 8.5 13.5Z" fill="white"/>
</svg>
