<svg width="59" height="59" viewBox="0 0 59 59" fill="none" xmlns="http://www.w3.org/2000/svg">
<path d="M31.397 26.3021C34.7504 25.33 37.2156 24.3148 36.4919 21.8183C35.7568 19.2823 33.2878 19.7402 29.893 20.7242L26.3326 21.7563L27.8365 27.3341L31.397 26.3021Z" fill="black"/>
<path fill-rule="evenodd" clip-rule="evenodd" d="M21.7382 2.03982C6.41884 6.48033 -2.40025 22.4989 2.04026 37.8183C6.48077 53.1377 22.4994 61.9568 37.8188 57.5163C53.1382 53.0758 61.9573 37.0572 57.5168 21.7378C53.0762 6.4184 37.0577 -2.40069 21.7382 2.03982ZM33.5688 46.7207L27.7727 48.4008L26.0606 42.8833L21.7964 44.1193L20.1883 38.5717L24.4526 37.3356L23.6485 34.5618L19.3843 35.7978L17.7762 30.2502L22.0405 29.0141L18.9284 17.8887L28.2849 15.1766C36.8537 12.6928 40.4901 14.8604 42.0407 20.21C43.5569 25.4406 41.6778 29.3358 33.005 31.8497L29.4446 32.8817L30.2486 35.6556L38.0733 33.3875L39.6813 38.9351L31.8567 41.2032L33.5688 46.7207Z" fill="black"/>
</svg>
