<svg width="20" height="23" viewBox="0 0 20 23" fill="none" xmlns="http://www.w3.org/2000/svg">
<path d="M1.6 0.601562C0.716 0.601562 0 1.31756 0 2.20156V19.8016C0 20.6856 0.716 21.4016 1.6 21.4016H8.41406C7.64766 20.2576 7.2 18.8824 7.2 17.4016C7.2 13.4248 10.4232 10.2016 14.4 10.2016C14.9504 10.2016 15.4848 10.2683 16 10.3859V6.60156C16 6.38956 15.916 6.18634 15.7656 6.03594L10.5656 0.835937C10.4152 0.685537 10.212 0.601562 10 0.601562H1.6ZM9.6 2.125L14.4766 7.00156H10.4C9.9584 7.00156 9.6 6.64316 9.6 6.20156V2.125ZM14.4 11.8016C11.3072 11.8016 8.8 14.3088 8.8 17.4016C8.8 20.4944 11.3072 23.0016 14.4 23.0016C17.4928 23.0016 20 20.4944 20 17.4016C20 14.3088 17.4928 11.8016 14.4 11.8016ZM14.4 14.2016C14.8416 14.2016 15.2 14.5592 15.2 15.0016V16.6016H16.8C17.2416 16.6016 17.6 16.9592 17.6 17.4016C17.6 17.844 17.2416 18.2016 16.8 18.2016H15.2V19.8016C15.2 20.244 14.8416 20.6016 14.4 20.6016C13.9584 20.6016 13.6 20.244 13.6 19.8016V18.2016H12C11.5584 18.2016 11.2 17.844 11.2 17.4016C11.2 16.9592 11.5584 16.6016 12 16.6016H13.6V15.0016C13.6 14.5592 13.9584 14.2016 14.4 14.2016Z" fill="black" fill-opacity="0.6"/>
</svg>
