<svg width="20" height="20" viewBox="0 0 20 20" fill="none" xmlns="http://www.w3.org/2000/svg">
<g clip-path="url(#clip0_2495_33727)">
<path d="M8.58268 17.5013C8.72217 17.755 8.92722 17.9666 9.17642 18.114C9.42563 18.2613 9.70983 18.3391 9.99935 18.3391C10.2889 18.3391 10.5731 18.2613 10.8223 18.114C11.0715 17.9666 11.2765 17.755 11.416 17.5013M3.33268 1.66797C2.33268 3.08464 1.66602 4.7513 1.66602 6.66797M18.3327 6.66797C18.3327 4.7513 17.666 3.08464 16.666 1.66797M4.99935 6.66797C4.99935 5.34189 5.52613 4.07012 6.46382 3.13243C7.4015 2.19475 8.67327 1.66797 9.99935 1.66797C11.3254 1.66797 12.5972 2.19475 13.5349 3.13243C14.4726 4.07012 14.9993 5.34189 14.9993 6.66797C14.9993 12.5013 17.4993 14.168 17.4993 14.168H2.49935C2.49935 14.168 4.99935 12.5013 4.99935 6.66797Z" stroke="black" stroke-width="1.5" stroke-linecap="round" stroke-linejoin="round"/>
</g>
<defs>
<clipPath id="clip0_2495_33727">
<rect width="20" height="20" fill="white"/>
</clipPath>
</defs>
</svg>
