<svg width="39" height="46" viewBox="0 0 39 46" fill="none" xmlns="http://www.w3.org/2000/svg">
<path d="M38.75 15.1693V42.4609C38.75 43.8882 37.594 45.0443 36.1667 45.0443H2.58333C1.15604 45.0443 0 43.8882 0 42.4609V3.54427C0 2.11698 1.15604 0.960938 2.58333 0.960938H24.5417L38.75 15.1693Z" fill="black" fill-opacity="0.2"/>
<path d="M24.543 0.960938V12.5859C24.543 14.0132 25.699 15.1693 27.1263 15.1693H38.7513L24.543 0.960938Z" fill="black" fill-opacity="0.4"/>
<path d="M5.12109 33.0822V23.0898H8.66026C12.2098 23.0898 13.9832 24.7135 13.9832 27.9607C13.9832 29.5172 13.4988 30.7598 12.5301 31.6885C11.5613 32.6172 10.271 33.0822 8.65897 33.0822H5.12109ZM7.37118 24.9227V31.2571H8.48589C9.46109 31.2571 10.2271 30.9638 10.7812 30.3787C11.3366 29.7936 11.6143 28.9966 11.6143 27.9891C11.6143 27.0372 11.3392 26.288 10.7889 25.7416C10.2387 25.1953 9.46626 24.9227 8.47168 24.9227H7.37118Z" fill="black" fill-opacity="0.4"/>
<path d="M19.8641 33.2552C18.433 33.2552 17.2679 32.7889 16.3663 31.8576C15.4647 30.9263 15.0139 29.7122 15.0139 28.2164C15.0139 26.6367 15.4712 25.3592 16.387 24.384C17.3027 23.4101 18.5156 22.9219 20.0243 22.9219C21.4503 22.9219 22.6037 23.3882 23.4834 24.322C24.3643 25.2559 24.8035 26.4869 24.8035 28.0149C24.8035 29.5856 24.3475 30.8514 23.4343 31.8124C22.5224 32.7747 21.3327 33.2552 19.8641 33.2552ZM19.9623 24.8594C19.1731 24.8594 18.5453 25.1552 18.0803 25.748C17.6153 26.3409 17.3841 27.1237 17.3841 28.1002C17.3841 29.0896 17.6166 29.8723 18.0803 30.4484C18.5453 31.0245 19.1537 31.3125 19.9055 31.3125C20.6817 31.3125 21.2966 31.0323 21.7525 30.473C22.2072 29.9137 22.4358 29.1361 22.4358 28.1428C22.4358 27.1069 22.215 26.3009 21.7745 25.7248C21.334 25.1487 20.7282 24.8594 19.9623 24.8594Z" fill="black" fill-opacity="0.4"/>
<path d="M33.6255 32.7256C32.897 33.0782 31.945 33.2552 30.7696 33.2552C29.2364 33.2552 28.0313 32.8044 27.153 31.9028C26.2746 31.0012 25.8354 29.8013 25.8354 28.3004C25.8354 26.7026 26.3289 25.4057 27.3157 24.4125C28.3025 23.4192 29.5852 22.9219 31.1597 22.9219C32.1349 22.9219 32.9577 23.0446 33.6268 23.2913V25.4587C32.9577 25.0596 32.1956 24.8594 31.3418 24.8594C30.4041 24.8594 29.6459 25.1539 29.0698 25.7442C28.4937 26.3345 28.2057 27.1327 28.2057 28.1415C28.2057 29.1077 28.4769 29.8775 29.0207 30.451C29.5645 31.0245 30.2956 31.3113 31.2152 31.3113C32.0936 31.3113 32.897 31.0981 33.6255 30.6706V32.7256Z" fill="black" fill-opacity="0.4"/>
</svg>
