<svg width="24" height="24" viewBox="0 0 24 24" fill="none" xmlns="http://www.w3.org/2000/svg">
<path d="M12.0004 2.39844C6.69879 2.39844 2.40039 6.69684 2.40039 11.9984C2.40039 17.3 6.69879 21.5984 12.0004 21.5984C17.302 21.5984 21.6004 17.3 21.6004 11.9984C21.6004 6.69684 17.302 2.39844 12.0004 2.39844ZM12.0004 17.9984C11.338 17.9984 10.8004 17.4608 10.8004 16.7984C10.8004 16.136 11.338 15.5984 12.0004 15.5984C12.6628 15.5984 13.2004 16.136 13.2004 16.7984C13.2004 17.4608 12.6628 17.9984 12.0004 17.9984ZM13.6548 12.3984C13.1252 12.8872 12.8004 13.208 12.8004 13.5984H11.2004C11.2004 12.4872 11.9596 11.7864 12.5692 11.2224C13.2084 10.632 13.6004 10.2376 13.6004 9.59844C13.6004 8.71604 12.8828 7.99844 12.0004 7.99844C11.118 7.99844 10.4004 8.71604 10.4004 9.59844H8.80039C8.80039 7.83364 10.2356 6.39844 12.0004 6.39844C13.7652 6.39844 15.2004 7.83364 15.2004 9.59844C15.2004 10.9704 14.3436 11.7616 13.6548 12.3984Z" fill="black"/>
</svg>
