<svg width="24" height="24" viewBox="0 0 24 24" fill="none" xmlns="http://www.w3.org/2000/svg">
<g clip-path="url(#clip0_2615_6806)">
<path d="M2.39968 4C1.51568 4 0.799675 4.716 0.799675 5.6V16.8C0.693666 16.7985 0.588415 16.8181 0.490041 16.8576C0.391666 16.8971 0.302129 16.9558 0.226634 17.0303C0.151138 17.1047 0.091189 17.1934 0.0502708 17.2912C0.00935261 17.389 -0.0117187 17.494 -0.0117188 17.6C-0.0117188 17.706 0.00935261 17.811 0.0502708 17.9088C0.091189 18.0066 0.151138 18.0953 0.226634 18.1697C0.302129 18.2442 0.391666 18.3029 0.490041 18.3424C0.588415 18.3819 0.693666 18.4015 0.799675 18.4H2.39968H3.2403C3.43822 19.7483 4.59973 20.8 5.99968 20.8C7.39962 20.8 8.56113 19.7483 8.75905 18.4H14.3997H16.0403C16.2382 19.7483 17.3997 20.8 18.7997 20.8C20.1996 20.8 21.3611 19.7483 21.559 18.4H23.1997C23.3057 18.4015 23.4109 18.3819 23.5093 18.3424C23.6077 18.3029 23.6972 18.2442 23.7727 18.1697C23.8482 18.0953 23.9082 18.0066 23.9491 17.9088C23.99 17.811 24.0111 17.706 24.0111 17.6C24.0111 17.494 23.99 17.389 23.9491 17.2912C23.9082 17.1934 23.8482 17.1047 23.7727 17.0303C23.6972 16.9558 23.6077 16.8971 23.5093 16.8576C23.4109 16.8181 23.3057 16.7985 23.1997 16.8V12.8H18.3997V9.6C18.3997 9.1584 18.7581 8.8 19.1997 8.8H21.4856L21.2153 8.17031C20.9633 7.58231 20.385 7.2 19.745 7.2H14.3997V5.6C14.3997 4.716 13.6837 4 12.7997 4H2.39968ZM5.99968 16.8C6.67189 16.8 7.19968 17.3278 7.19968 18C7.19968 18.6722 6.67189 19.2 5.99968 19.2C5.32746 19.2 4.79968 18.6722 4.79968 18C4.79968 17.3278 5.32746 16.8 5.99968 16.8ZM18.7997 16.8C19.4719 16.8 19.9997 17.3278 19.9997 18C19.9997 18.6722 19.4719 19.2 18.7997 19.2C18.1275 19.2 17.5997 18.6722 17.5997 18C17.5997 17.3278 18.1275 16.8 18.7997 16.8Z" fill="black"/>
</g>
<defs>
<clipPath id="clip0_2615_6806">
<rect width="24" height="24" fill="white"/>
</clipPath>
</defs>
</svg>
