<svg width="22" height="19" viewBox="0 0 22 19" fill="none" xmlns="http://www.w3.org/2000/svg">
<path fill-rule="evenodd" clip-rule="evenodd" d="M0.199219 1.80156C0.199219 1.4833 0.325647 1.17808 0.550691 0.953034C0.775734 0.727991 1.08096 0.601563 1.39922 0.601562H20.5992C20.9175 0.601563 21.2227 0.727991 21.4477 0.953034C21.6728 1.17808 21.7992 1.4833 21.7992 1.80156V11.4016C21.7992 11.7198 21.6728 12.025 21.4477 12.2501C21.2227 12.4751 20.9175 12.6016 20.5992 12.6016H1.39922C1.08096 12.6016 0.775734 12.4751 0.550691 12.2501C0.325647 12.025 0.199219 11.7198 0.199219 11.4016V1.80156ZM14.5992 6.60156C14.5992 7.55634 14.2199 8.47202 13.5448 9.14715C12.8697 9.82228 11.954 10.2016 10.9992 10.2016C10.0444 10.2016 9.12877 9.82228 8.45363 9.14715C7.7785 8.47202 7.39922 7.55634 7.39922 6.60156C7.39922 5.64678 7.7785 4.73111 8.45363 4.05598C9.12877 3.38085 10.0444 3.00156 10.9992 3.00156C11.954 3.00156 12.8697 3.38085 13.5448 4.05598C14.2199 4.73111 14.5992 5.64678 14.5992 6.60156ZM3.79922 7.80156C4.11748 7.80156 4.4227 7.67513 4.64775 7.45009C4.87279 7.22505 4.99922 6.91982 4.99922 6.60156C4.99922 6.2833 4.87279 5.97808 4.64775 5.75303C4.4227 5.52799 4.11748 5.40156 3.79922 5.40156C3.48096 5.40156 3.17573 5.52799 2.95069 5.75303C2.72565 5.97808 2.59922 6.2833 2.59922 6.60156C2.59922 6.91982 2.72565 7.22505 2.95069 7.45009C3.17573 7.67513 3.48096 7.80156 3.79922 7.80156ZM19.3992 6.60156C19.3992 6.91982 19.2728 7.22505 19.0477 7.45009C18.8227 7.67513 18.5175 7.80156 18.1992 7.80156C17.881 7.80156 17.5757 7.67513 17.3507 7.45009C17.1256 7.22505 16.9992 6.91982 16.9992 6.60156C16.9992 6.2833 17.1256 5.97808 17.3507 5.75303C17.5757 5.52799 17.881 5.40156 18.1992 5.40156C18.5175 5.40156 18.8227 5.52799 19.0477 5.75303C19.2728 5.97808 19.3992 6.2833 19.3992 6.60156ZM1.09922 14.4016C0.860524 14.4016 0.631605 14.4964 0.462823 14.6652C0.29404 14.834 0.199219 15.0629 0.199219 15.3016C0.199219 15.5403 0.29404 15.7692 0.462823 15.938C0.631605 16.1067 0.860524 16.2016 1.09922 16.2016C6.39962 16.2016 11.5308 16.9252 16.398 18.2776C17.7312 18.6484 19.0992 17.6632 19.0992 16.2424V15.3016C19.0992 15.0629 19.0044 14.834 18.8356 14.6652C18.6668 14.4964 18.4379 14.4016 18.1992 14.4016C17.9605 14.4016 17.7316 14.4964 17.5628 14.6652C17.394 14.834 17.2992 15.0629 17.2992 15.3016V16.2424C17.2973 16.2921 17.284 16.3408 17.2603 16.3847C17.2367 16.4285 17.2033 16.4664 17.1628 16.4953C17.1222 16.5243 17.0756 16.5436 17.0265 16.5517C16.9773 16.5599 16.9269 16.5567 16.8792 16.5424C11.7405 15.1171 6.43192 14.3969 1.09922 14.4016Z" fill="black"/>
</svg>
