<svg width="18" height="18" viewBox="0 0 18 18" fill="none" xmlns="http://www.w3.org/2000/svg">
<path fill-rule="evenodd" clip-rule="evenodd" d="M12.3898 3.82637C12.761 3.46767 13.2583 3.26913 13.7745 3.27351C14.2907 3.27789 14.7845 3.48484 15.1496 3.84979C15.5147 4.21474 15.7219 4.70848 15.7265 5.22468C15.7311 5.74088 15.5327 6.23823 15.1742 6.60962L7.00441 14.7805C6.71715 15.0677 6.37617 15.2955 6.00091 15.451L3.69804 16.405C3.54385 16.4689 3.37417 16.4856 3.21047 16.4531C3.04677 16.4205 2.8964 16.3402 2.77838 16.2222C2.66036 16.1041 2.57999 15.9538 2.54745 15.7901C2.5149 15.6264 2.53164 15.4567 2.59554 15.3025L3.54954 12.9996C3.70499 12.6243 3.93283 12.2834 4.22004 11.9961L12.3898 3.82637Z" fill="#F35B1A"/>
</svg>
