<svg width="28" height="28" viewBox="0 0 28 28" fill="none" xmlns="http://www.w3.org/2000/svg">
<path d="M14 10.5C12.8397 10.5 11.7269 10.9609 10.9064 11.7814C10.0859 12.6019 9.625 13.7147 9.625 14.875C9.625 16.0353 10.0859 17.1481 10.9064 17.9686C11.7269 18.7891 12.8397 19.25 14 19.25C15.1603 19.25 16.2731 18.7891 17.0936 17.9686C17.9141 17.1481 18.375 16.0353 18.375 14.875C18.375 13.7147 17.9141 12.6019 17.0936 11.7814C16.2731 10.9609 15.1603 10.5 14 10.5Z" fill="black" fill-opacity="0.3"/>
<path fill-rule="evenodd" clip-rule="evenodd" d="M10.9013 3.58316C12.9656 3.47228 15.0344 3.47228 17.0987 3.58316C18.2268 3.64382 19.2337 4.26566 19.8193 5.20482L20.7772 6.74132C21.0572 7.18816 21.5297 7.49149 22.0722 7.56966C22.5225 7.63266 22.9705 7.70149 23.4162 7.77616C25.0868 8.05499 26.25 9.51799 26.25 11.17V21.0003C26.25 21.9286 25.8813 22.8188 25.2249 23.4752C24.5685 24.1316 23.6783 24.5003 22.75 24.5003H5.25C4.32174 24.5003 3.4315 24.1316 2.77513 23.4752C2.11875 22.8188 1.75 21.9286 1.75 21.0003V11.17C1.75 9.51799 2.91317 8.05499 4.58383 7.77616C5.0295 7.70149 5.4775 7.63266 5.92667 7.56849C6.18988 7.53326 6.4422 7.44086 6.66591 7.29776C6.88963 7.15467 7.07932 6.96435 7.22167 6.74016L8.18067 5.20599C8.47058 4.73705 8.86919 4.34485 9.34276 4.06258C9.81634 3.7803 10.3509 3.61509 10.9013 3.58316ZM7.875 14.8753C7.875 13.2509 8.52031 11.693 9.66897 10.5443C10.8176 9.39564 12.3755 8.75032 14 8.75032C15.6245 8.75032 17.1824 9.39564 18.331 10.5443C19.4797 11.693 20.125 13.2509 20.125 14.8753C20.125 16.4998 19.4797 18.0577 18.331 19.2064C17.1824 20.355 15.6245 21.0003 14 21.0003C12.3755 21.0003 10.8176 20.355 9.66897 19.2064C8.52031 18.0577 7.875 16.4998 7.875 14.8753ZM21.875 13.1253C22.1071 13.1253 22.3296 13.0331 22.4937 12.869C22.6578 12.7049 22.75 12.4824 22.75 12.2503C22.75 12.0183 22.6578 11.7957 22.4937 11.6316C22.3296 11.4675 22.1071 11.3753 21.875 11.3753C21.6429 11.3753 21.4204 11.4675 21.2563 11.6316C21.0922 11.7957 21 12.0183 21 12.2503C21 12.4824 21.0922 12.7049 21.2563 12.869C21.4204 13.0331 21.6429 13.1253 21.875 13.1253Z" fill="black" fill-opacity="0.3"/>
</svg>
