<svg width="24" height="24" viewBox="0 0 24 24" fill="none" xmlns="http://www.w3.org/2000/svg">
<g clip-path="url(#clip0_2615_6818)">
<path d="M11.9984 1.60156C11.7893 1.60158 11.5885 1.68346 11.4391 1.82969L2.7125 8.96719C2.70242 8.97477 2.69252 8.98258 2.68281 8.99062L2.65313 9.01562V9.01719C2.57289 9.09194 2.50887 9.18238 2.46506 9.28291C2.42125 9.38344 2.39857 9.4919 2.39844 9.60156C2.39844 9.81374 2.48272 10.0172 2.63275 10.1672C2.78278 10.3173 2.98626 10.4016 3.19844 10.4016H3.99844V19.2016C3.99844 20.0856 4.71444 20.8016 5.59844 20.8016H11.6172C11.3508 20.0496 11.1984 19.2448 11.1984 18.4016C11.1984 14.4248 14.4216 11.2016 18.3984 11.2016C18.9488 11.2016 19.4832 11.2683 19.9984 11.3859V10.4016H20.7984C21.0106 10.4016 21.2141 10.3173 21.3641 10.1672C21.5142 10.0172 21.5984 9.81374 21.5984 9.60156C21.5985 9.49164 21.5759 9.38288 21.5321 9.28207C21.4883 9.18125 21.4242 9.09055 21.3438 9.01562L21.3313 9.00625C21.3137 8.99034 21.2955 8.97522 21.2766 8.96094L12.5406 1.81562C12.3932 1.67862 12.1997 1.60219 11.9984 1.60156ZM18.3984 12.8016C15.3056 12.8016 12.7984 15.3088 12.7984 18.4016C12.7984 21.4944 15.3056 24.0016 18.3984 24.0016C21.4912 24.0016 23.9984 21.4944 23.9984 18.4016C23.9984 15.3088 21.4912 12.8016 18.3984 12.8016ZM20.7984 16.0016C21.003 16.0016 21.2077 16.0795 21.3641 16.2359C21.6769 16.5487 21.6769 17.0544 21.3641 17.3672L18.1641 20.5672C18.0081 20.7232 17.8032 20.8016 17.5984 20.8016C17.3936 20.8016 17.1888 20.7232 17.0328 20.5672L15.4328 18.9672C15.12 18.6544 15.12 18.1487 15.4328 17.8359C15.7456 17.5231 16.2513 17.5231 16.5641 17.8359L17.5984 18.8703L20.2328 16.2359C20.3892 16.0795 20.5938 16.0016 20.7984 16.0016Z" fill="black" fill-opacity="0.4"/>
</g>
<defs>
<clipPath id="clip0_2615_6818">
<rect width="24" height="24" fill="white"/>
</clipPath>
</defs>
</svg>
