<svg width="13" height="13" viewBox="0 0 13 13" fill="none" xmlns="http://www.w3.org/2000/svg">
<g clip-path="url(#clip0_2615_6624)">
<path d="M1.30493 2.54688C0.826554 2.54688 0.439088 2.93045 0.439088 3.40402V9.40402C0.381721 9.40321 0.324764 9.41371 0.271529 9.43488C0.218293 9.45606 0.16984 9.4875 0.128985 9.52738C0.0881303 9.56725 0.0556888 9.61477 0.0335458 9.66717C0.0114028 9.71956 0 9.77579 0 9.83259C0 9.88939 0.0114028 9.94562 0.0335458 9.99801C0.0556888 10.0504 0.0881303 10.0979 0.128985 10.1378C0.16984 10.1777 0.218293 10.2091 0.271529 10.2303C0.324764 10.2515 0.381721 10.262 0.439088 10.2612H1.30493H1.75984C1.86694 10.9835 2.4955 11.5469 3.25308 11.5469C4.01067 11.5469 4.63922 10.9835 4.74633 10.2612H7.79877H8.6866C8.7937 10.9835 9.42225 11.5469 10.1798 11.5469C10.9374 11.5469 11.566 10.9835 11.6731 10.2612H12.5609C12.6183 10.262 12.6752 10.2515 12.7285 10.2303C12.7817 10.2091 12.8302 10.1777 12.871 10.1378C12.9119 10.0979 12.9443 10.0504 12.9665 9.99801C12.9886 9.94562 13 9.88939 13 9.83259C13 9.77579 12.9886 9.71956 12.9665 9.66717C12.9443 9.61477 12.9119 9.56725 12.871 9.52738C12.8302 9.4875 12.7817 9.45606 12.7285 9.43488C12.6752 9.41371 12.6183 9.40321 12.5609 9.40402V7.26116H9.96338V5.54688C9.96338 5.3103 10.1573 5.1183 10.3963 5.1183H11.6333L11.4871 4.78097C11.3507 4.46597 11.0377 4.26116 10.6914 4.26116H7.79877V3.40402C7.79877 2.93045 7.4113 2.54688 6.93292 2.54688H1.30493ZM3.25308 9.40402C3.61686 9.40402 3.90247 9.68676 3.90247 10.0469C3.90247 10.407 3.61686 10.6897 3.25308 10.6897C2.88931 10.6897 2.6037 10.407 2.6037 10.0469C2.6037 9.68676 2.88931 9.40402 3.25308 9.40402ZM10.1798 9.40402C10.5436 9.40402 10.8292 9.68676 10.8292 10.0469C10.8292 10.407 10.5436 10.6897 10.1798 10.6897C9.81607 10.6897 9.53046 10.407 9.53046 10.0469C9.53046 9.68676 9.81607 9.40402 10.1798 9.40402Z" fill="black" fill-opacity="0.6"/>
</g>
<defs>
<clipPath id="clip0_2615_6624">
<rect width="12" height="12" fill="white" transform="translate(0.5 0.5)"/>
</clipPath>
</defs>
</svg>
