<svg width="15" height="15" viewBox="0 0 15 15" fill="none" xmlns="http://www.w3.org/2000/svg">
<path fill-rule="evenodd" clip-rule="evenodd" d="M4 2.03125C4 1.8572 4.06914 1.69028 4.19221 1.56721C4.31528 1.44414 4.4822 1.375 4.65625 1.375C4.8303 1.375 4.99722 1.44414 5.12029 1.56721C5.24336 1.69028 5.3125 1.8572 5.3125 2.03125V3.125H9.6875V2.03125C9.6875 1.8572 9.75664 1.69028 9.87971 1.56721C10.0028 1.44414 10.1697 1.375 10.3438 1.375C10.5178 1.375 10.6847 1.44414 10.8078 1.56721C10.9309 1.69028 11 1.8572 11 2.03125V3.125C11.4641 3.125 11.9092 3.30937 12.2374 3.63756C12.5656 3.96575 12.75 4.41087 12.75 4.875V11C12.75 11.4641 12.5656 11.9092 12.2374 12.2374C11.9092 12.5656 11.4641 12.75 11 12.75H4C3.53587 12.75 3.09075 12.5656 2.76256 12.2374C2.43437 11.9092 2.25 11.4641 2.25 11V4.875C2.25 4.41087 2.43437 3.96575 2.76256 3.63756C3.09075 3.30937 3.53587 3.125 4 3.125V2.03125ZM4.4375 5.75C4.20544 5.75 3.98288 5.84219 3.81878 6.00628C3.65469 6.17038 3.5625 6.39294 3.5625 6.625V10.5625C3.5625 10.7946 3.65469 11.0171 3.81878 11.1812C3.98288 11.3453 4.20544 11.4375 4.4375 11.4375H10.5625C10.7946 11.4375 11.0171 11.3453 11.1812 11.1812C11.3453 11.0171 11.4375 10.7946 11.4375 10.5625V6.625C11.4375 6.39294 11.3453 6.17038 11.1812 6.00628C11.0171 5.84219 10.7946 5.75 10.5625 5.75H4.4375Z" fill="black" fill-opacity="0.6"/>
</svg>
