<svg width="32" height="33" viewBox="0 0 32 33" fill="none" xmlns="http://www.w3.org/2000/svg">
<path d="M14.0007 17.3633C13.8007 17.3633 13.6673 17.4299 13.534 17.5633L11.8007 19.1633C11.534 19.4299 11.334 19.8299 11.334 20.2299V21.6966C11.334 22.0966 11.4673 22.4966 11.8007 22.7633L12.134 23.0966C12.2673 23.2299 12.4673 23.2966 12.6673 23.2966C12.8673 23.2966 13.0673 23.2299 13.2007 23.0966L13.734 22.5633C13.8673 22.4299 14.0673 22.3633 14.2673 22.3633H14.8673C15.0673 22.3633 15.2673 22.4299 15.4007 22.5633L16.2007 23.4299C16.334 23.5633 16.534 23.6299 16.734 23.6299H17.2007C17.4673 23.6299 17.734 23.4966 17.8007 23.2299L18.734 21.3633C18.8007 21.2299 18.8007 21.0299 18.8007 20.8299L17.8007 18.2299C17.734 17.8966 17.4007 17.7633 17.134 17.7633C17.0007 17.7633 16.8007 17.8299 16.6673 17.9633C16.534 18.0966 16.4007 18.1633 16.2007 18.1633C16.134 18.1633 16.0007 18.1633 15.934 18.0966L14.2673 17.4299C14.134 17.3633 14.0673 17.3633 14.0007 17.3633Z" fill="black"/>
<path d="M16.666 26.2332V26.0332C16.666 25.7666 16.7993 25.5665 16.9993 25.4332L18.7327 24.2999C18.9993 24.0999 19.3327 24.1665 19.5327 24.4332L19.866 24.8999C20.1327 25.2332 19.9993 25.7665 19.5993 25.9665L17.5327 26.8332C17.1327 27.0332 16.666 26.6999 16.666 26.2332Z" fill="black"/>
<path d="M20 23.8319V22.6319C20 22.2985 20.3333 22.0985 20.6 22.2985L21.2 22.8985C21.3333 23.0319 21.3333 23.3652 21.2 23.4985L20.6 24.0985C20.4 24.3652 20 24.1652 20 23.8319Z" fill="black"/>
<path d="M28.3333 16.8984H27.4C27.2667 16.8984 27.1333 16.8984 27 16.9651L25.2 17.7651C25.0667 17.8318 24.9333 17.9651 24.8 18.0984L24.4 18.6318C24.1333 18.9651 24.1333 19.4318 24.4 19.7651L24.9333 20.5651C25.2 20.8984 25.1333 21.4318 24.8667 21.7651L24.2 22.5651C24.0667 22.7651 24 22.9651 24 23.1651V26.4984C27.4667 22.8984 28.3333 20.2318 28.3333 16.8984Z" fill="black"/>
<path d="M21.8005 6.03125C25.6672 8.09792 28.3339 12.2312 28.3339 16.8979C28.3339 23.6979 22.8005 29.2312 16.0005 29.2312C12.4005 29.2312 9.13385 27.6979 6.86719 25.1646" stroke="black" stroke-linecap="round" stroke-linejoin="round"/>
<path d="M4.19935 20.4331C3.86602 19.2997 3.66602 18.0997 3.66602 16.8997C3.66602 10.0997 9.19935 4.56641 15.9993 4.56641C16.3327 4.56641 16.666 4.56641 16.9993 4.63307" stroke="black" stroke-linecap="round" stroke-linejoin="round"/>
<path d="M27.8667 13.5659L26 9.69922C26 9.09922 24.4667 7.96589 24.4667 7.96589C24 7.49922 23.4667 7.09922 22.9333 6.69922L22 7.49922C21.8667 7.63255 21.6667 7.69922 21.5333 7.69922C21.4 7.69922 21.2667 7.63255 21.1333 7.56589L20.5333 7.03255C20.4 6.96589 20.2667 6.89922 20.0667 6.89922H18.6667C18.2667 6.89922 18 7.16589 18 7.56589V8.23255C18 8.63255 18.2667 8.89922 18.6667 8.89922H19C19.2 8.89922 19.4 8.96589 19.5333 9.09922L21.2 11.0326C21.3333 11.1659 21.3333 11.2992 21.3333 11.4326V13.0992C21.3333 13.2326 21.3333 13.2992 21.4 13.4326L22.4 15.1659C22.5333 15.3659 22.7333 15.4992 23 15.4992H23.3333C23.7333 15.4992 24 15.7659 24 16.1659C24 16.5659 24.2667 16.8326 24.6667 16.8326C24.8667 16.8326 25 16.7659 25.1333 16.6326L26.1333 15.6992C26.2667 15.5659 26.4 15.4992 26.6 15.4992L28.2667 15.4326C28.2 14.8326 28.0667 14.1659 27.8667 13.5659Z" fill="black"/>
<path d="M13.7339 4.76641L8.46719 7.09974L4.46719 12.5664C4.20052 13.2997 4.00052 14.0331 3.86719 14.7664L4.73385 15.6331C4.80052 15.6997 4.80052 15.6997 4.86719 15.7664L5.86719 17.7664C5.93385 18.0997 6.13385 18.2331 6.40052 18.2331H6.73385C7.06719 18.2331 7.33385 17.9664 7.33385 17.6331V15.8331C7.33385 15.6997 7.40052 15.4997 7.53385 15.4331L8.00052 14.8997C8.00052 14.8997 8.06719 14.8331 8.20052 14.8331C8.33385 14.8331 8.40052 14.8997 8.46719 15.2331C8.53385 15.8997 8.86719 17.6997 8.86719 17.6997C8.93385 17.9664 9.13385 18.2331 9.46719 18.2331C9.80052 18.2331 10.0672 17.9664 10.0672 17.6331V12.8331C10.0672 12.4997 10.3339 12.2331 10.6672 12.2331H11.1339C11.2672 12.2331 11.4672 12.1664 11.5339 12.0331L12.2005 11.3664C12.4672 11.0997 12.4005 10.6997 12.1339 10.4331L11.8672 10.2331C11.6005 10.0331 11.5339 9.63307 11.7339 9.36641L12.0005 9.03307C12.1339 8.89974 12.2672 8.83307 12.4672 8.83307C12.7339 8.83307 12.9339 8.96641 13.0672 9.23307L13.2672 9.76641C13.3339 10.0331 13.6005 10.1664 13.8672 10.1664H14.1339C14.4672 10.1664 14.7339 9.89974 14.7339 9.56641V7.96641C14.7339 7.89974 14.7339 7.83307 14.8005 7.76641L16.0672 4.56641C15.2005 4.56641 14.4672 4.63307 13.7339 4.76641Z" fill="black"/>
</svg>
