<svg width="24" height="24" viewBox="0 0 24 24" fill="none" xmlns="http://www.w3.org/2000/svg">
<path d="M11.9996 2.39844C11.1156 2.39844 10.3996 3.11444 10.3996 3.99844V4.23281C8.08682 4.9215 6.39961 7.0619 6.39961 9.59844V11.8047C6.39961 13.9783 5.53641 16.0616 3.99961 17.5984C3.78744 17.5984 3.58395 17.6827 3.43392 17.8328C3.28389 17.9828 3.19961 18.1863 3.19961 18.3984C3.19961 18.6106 3.28389 18.8141 3.43392 18.9641C3.58395 19.1142 3.78744 19.1984 3.99961 19.1984H19.9996C20.2118 19.1984 20.4153 19.1142 20.5653 18.9641C20.7153 18.8141 20.7996 18.6106 20.7996 18.3984C20.7996 18.1863 20.7153 17.9828 20.5653 17.8328C20.4153 17.6827 20.2118 17.5984 19.9996 17.5984C18.4628 16.0616 17.5996 13.9783 17.5996 11.8047V9.59844C17.5996 7.0619 15.9124 4.9215 13.5996 4.23281V3.99844C13.5996 3.11444 12.8836 2.39844 11.9996 2.39844ZM3.16367 6.38906C3.02029 6.39642 2.88152 6.44223 2.76193 6.52168C2.64234 6.60113 2.54634 6.7113 2.48398 6.84062C2.48398 6.84062 1.59961 8.53177 1.59961 10.3984C1.59961 12.2651 2.48398 13.9562 2.48398 13.9562C2.57892 14.146 2.74532 14.2902 2.9466 14.3573C3.14789 14.4244 3.36756 14.4088 3.55733 14.3139C3.74709 14.219 3.8914 14.0526 3.95852 13.8514C4.02563 13.6501 4.01007 13.4304 3.91523 13.2406C3.91523 13.2406 3.19961 11.7318 3.19961 10.3984C3.19961 9.0651 3.91523 7.55625 3.91523 7.55625C3.98005 7.43119 4.01071 7.29123 4.0041 7.15053C3.99748 7.00983 3.95384 6.87336 3.87759 6.75493C3.80133 6.6365 3.69515 6.5403 3.5698 6.47606C3.44444 6.41181 3.30434 6.3818 3.16367 6.38906ZM20.8121 6.38906C20.6734 6.38606 20.5363 6.41918 20.4142 6.48517C20.2922 6.55116 20.1894 6.64776 20.1159 6.76549C20.0425 6.88321 20.0009 7.018 19.9953 7.15664C19.9897 7.29527 20.0203 7.43298 20.084 7.55625C20.084 7.55625 20.7996 9.0651 20.7996 10.3984C20.7996 11.7318 20.084 13.2406 20.084 13.2406C20.037 13.3346 20.0089 13.4369 20.0015 13.5417C19.994 13.6466 20.0073 13.7518 20.0405 13.8515C20.0737 13.9512 20.1262 14.0434 20.1951 14.1228C20.2639 14.2021 20.3477 14.2672 20.4417 14.3142C20.5357 14.3612 20.638 14.3892 20.7429 14.3966C20.8477 14.4041 20.9529 14.3908 21.0526 14.3576C21.1523 14.3243 21.2445 14.2718 21.3238 14.2029C21.4032 14.1341 21.4683 14.0502 21.5152 13.9562C21.5152 13.9562 22.3996 12.2651 22.3996 10.3984C22.3996 8.53177 21.5152 6.84062 21.5152 6.84062C21.451 6.70787 21.3514 6.59544 21.2273 6.51575C21.1032 6.43607 20.9595 6.39222 20.8121 6.38906ZM9.59961 20.7984C9.59961 22.124 10.674 23.1984 11.9996 23.1984C13.3252 23.1984 14.3996 22.124 14.3996 20.7984H9.59961Z" fill="black"/>
</svg>
