<svg width="18" height="18" viewBox="0 0 18 18" fill="none" xmlns="http://www.w3.org/2000/svg">
<path fill-rule="evenodd" clip-rule="evenodd" d="M0.900391 3.59922C0.900391 3.36052 0.995212 3.13161 1.16399 2.96282C1.33278 2.79404 1.5617 2.69922 1.80039 2.69922H16.2004C16.4391 2.69922 16.668 2.79404 16.8368 2.96282C17.0056 3.13161 17.1004 3.36052 17.1004 3.59922V10.7992C17.1004 11.0379 17.0056 11.2668 16.8368 11.4356C16.668 11.6044 16.4391 11.6992 16.2004 11.6992H1.80039C1.5617 11.6992 1.33278 11.6044 1.16399 11.4356C0.995212 11.2668 0.900391 11.0379 0.900391 10.7992V3.59922ZM11.7004 7.19922C11.7004 7.9153 11.4159 8.60206 10.9096 9.10841C10.4032 9.61476 9.71648 9.89922 9.00039 9.89922C8.28431 9.89922 7.59755 9.61476 7.0912 9.10841C6.58485 8.60206 6.30039 7.9153 6.30039 7.19922C6.30039 6.48313 6.58485 5.79638 7.0912 5.29003C7.59755 4.78368 8.28431 4.49922 9.00039 4.49922C9.71648 4.49922 10.4032 4.78368 10.9096 5.29003C11.4159 5.79638 11.7004 6.48313 11.7004 7.19922ZM3.60039 8.09922C3.83909 8.09922 4.068 8.0044 4.23679 7.83561C4.40557 7.66683 4.50039 7.43791 4.50039 7.19922C4.50039 6.96052 4.40557 6.73161 4.23679 6.56282C4.068 6.39404 3.83909 6.29922 3.60039 6.29922C3.3617 6.29922 3.13278 6.39404 2.96399 6.56282C2.79521 6.73161 2.70039 6.96052 2.70039 7.19922C2.70039 7.43791 2.79521 7.66683 2.96399 7.83561C3.13278 8.0044 3.3617 8.09922 3.60039 8.09922ZM15.3004 7.19922C15.3004 7.43791 15.2056 7.66683 15.0368 7.83561C14.868 8.0044 14.6391 8.09922 14.4004 8.09922C14.1617 8.09922 13.9328 8.0044 13.764 7.83561C13.5952 7.66683 13.5004 7.43791 13.5004 7.19922C13.5004 6.96052 13.5952 6.73161 13.764 6.56282C13.9328 6.39404 14.1617 6.29922 14.4004 6.29922C14.6391 6.29922 14.868 6.39404 15.0368 6.56282C15.2056 6.73161 15.3004 6.96052 15.3004 7.19922ZM1.57539 13.0492C1.39637 13.0492 1.22468 13.1203 1.09809 13.2469C0.971507 13.3735 0.900391 13.5452 0.900391 13.7242C0.900391 13.9032 0.971507 14.0749 1.09809 14.2015C1.22468 14.3281 1.39637 14.3992 1.57539 14.3992C5.55069 14.3992 9.39909 14.9419 13.0495 15.9562C14.0494 16.2343 15.0754 15.4954 15.0754 14.4298V13.7242C15.0754 13.5452 15.0043 13.3735 14.8777 13.2469C14.7511 13.1203 14.5794 13.0492 14.4004 13.0492C14.2214 13.0492 14.0497 13.1203 13.9231 13.2469C13.7965 13.3735 13.7254 13.5452 13.7254 13.7242V14.4298C13.7239 14.4672 13.714 14.5037 13.6962 14.5366C13.6785 14.5694 13.6535 14.5978 13.6231 14.6196C13.5927 14.6413 13.5577 14.6557 13.5208 14.6619C13.484 14.668 13.4462 14.6656 13.4104 14.6548C9.55635 13.5859 5.57491 13.0457 1.57539 13.0492Z" fill="#F35B1A"/>
</svg>
