<svg width="20" height="20" viewBox="0 0 20 20" fill="none" xmlns="http://www.w3.org/2000/svg">
<g clip-path="url(#clip0_2495_33747)">
<path d="M4.10768 4.10964L7.64102 7.64297M12.3577 7.64297L15.891 4.10964M12.3577 12.3596L15.891 15.893M7.64102 12.3596L4.10768 15.893M18.3327 10.0013C18.3327 14.6037 14.6017 18.3346 9.99935 18.3346C5.39698 18.3346 1.66602 14.6037 1.66602 10.0013C1.66602 5.39893 5.39698 1.66797 9.99935 1.66797C14.6017 1.66797 18.3327 5.39893 18.3327 10.0013ZM13.3327 10.0013C13.3327 11.8423 11.8403 13.3346 9.99935 13.3346C8.1584 13.3346 6.66602 11.8423 6.66602 10.0013C6.66602 8.16035 8.1584 6.66797 9.99935 6.66797C11.8403 6.66797 13.3327 8.16035 13.3327 10.0013Z" stroke="black" stroke-width="1.5" stroke-linecap="round" stroke-linejoin="round"/>
</g>
<defs>
<clipPath id="clip0_2495_33747">
<rect width="20" height="20" fill="white"/>
</clipPath>
</defs>
</svg>
