<svg width="24" height="24" viewBox="0 0 24 24" fill="none" xmlns="http://www.w3.org/2000/svg">
<path fill-rule="evenodd" clip-rule="evenodd" d="M11.6276 22.718L11.6312 22.7192C11.8676 22.8224 11.9996 22.7984 11.9996 22.7984C11.9996 22.7984 12.1316 22.8224 12.3692 22.7192L12.3716 22.718L12.3788 22.7144L12.4004 22.7048C12.5143 22.6519 12.6268 22.5959 12.7376 22.5368C12.9608 22.4216 13.2728 22.2488 13.646 22.0172C14.39 21.5564 15.38 20.858 16.3748 19.8992C18.362 17.984 20.3996 14.99 20.3996 10.7984C20.3996 9.69533 20.1823 8.60303 19.7602 7.5839C19.3381 6.56476 18.7193 5.63875 17.9393 4.85874C17.1593 4.07873 16.2333 3.45999 15.2142 3.03785C14.195 2.61571 13.1027 2.39844 11.9996 2.39844C10.8965 2.39844 9.8042 2.61571 8.78507 3.03785C7.76593 3.45999 6.83992 4.07873 6.05991 4.85874C5.2799 5.63875 4.66116 6.56476 4.23902 7.5839C3.81688 8.60303 3.59961 9.69533 3.59961 10.7984C3.59961 14.9888 5.63721 17.984 7.62561 19.8992C8.45811 20.6988 9.37233 21.4087 10.3532 22.0172C10.7331 22.2531 11.124 22.471 11.5244 22.67L11.5988 22.7048L11.6204 22.7144L11.6276 22.718ZM11.9996 13.4984C12.7157 13.4984 13.4024 13.214 13.9088 12.7076C14.4151 12.2013 14.6996 11.5145 14.6996 10.7984C14.6996 10.0824 14.4151 9.3956 13.9088 8.88925C13.4024 8.3829 12.7157 8.09844 11.9996 8.09844C11.2835 8.09844 10.5968 8.3829 10.0904 8.88925C9.58407 9.3956 9.29961 10.0824 9.29961 10.7984C9.29961 11.5145 9.58407 12.2013 10.0904 12.7076C10.5968 13.214 11.2835 13.4984 11.9996 13.4984Z" fill="black"/>
</svg>
