<svg width="20" height="20" viewBox="0 0 20 20" fill="none" xmlns="http://www.w3.org/2000/svg">
<path d="M17.5 5.83464H15C14.558 5.83464 14.134 5.65904 13.8215 5.34648C13.5089 5.03392 13.3333 4.61 13.3333 4.16797V1.66797M5.83333 6.66797V14.0013C5.83333 14.2513 6 14.5013 6.16667 14.668C6.33333 14.8346 6.58333 15.0013 6.83333 15.0013H12.5M2.5 10.0013V17.3346C2.5 17.5846 2.66667 17.8346 2.83333 18.0013C3 18.168 3.25 18.3346 3.5 18.3346H9.16667M17.5 5.0013V10.418C17.5 11.0846 16.9167 11.668 16.25 11.668H10.4167C9.75 11.668 9.16667 11.0846 9.16667 10.418V2.91797C9.16667 2.2513 9.75 1.66797 10.4167 1.66797H14.1667L17.5 5.0013Z" stroke="#000000" stroke-width="1.5" stroke-linecap="round" stroke-linejoin="round"/>
</svg>
