<svg width="20" height="20" viewBox="0 0 20 20" fill="none" xmlns="http://www.w3.org/2000/svg">
<path d="M7.57435 7.49874C7.77027 6.94179 8.15698 6.47216 8.66598 6.17301C9.17498 5.87387 9.77343 5.76452 10.3553 5.86433C10.9372 5.96414 11.465 6.26667 11.8452 6.71834C12.2255 7.17001 12.4336 7.74167 12.4327 8.33207C12.4327 9.99874 9.93268 10.8321 9.93268 10.8321M9.99935 14.1654H10.0077M6.58268 16.6654C8.17316 17.4813 10.0028 17.7023 11.7418 17.2886C13.4808 16.8748 15.0148 15.8536 16.0675 14.4089C17.1201 12.9642 17.6222 11.191 17.4832 9.40887C17.3441 7.62675 16.5732 5.95288 15.3092 4.6889C14.0452 3.42492 12.3713 2.65395 10.5892 2.51492C8.80709 2.37589 7.03391 2.87794 5.5892 3.93061C4.14449 4.98328 3.12326 6.51733 2.70953 8.25633C2.29581 9.99533 2.5168 11.8249 3.33268 13.4154L1.66602 18.3321L6.58268 16.6654Z" stroke="black" stroke-width="1.5" stroke-linecap="round" stroke-linejoin="round"/>
</svg>
