<svg width="12" height="16" viewBox="0 0 12 16" fill="none" xmlns="http://www.w3.org/2000/svg">
<path d="M6.00052 6.20078C6.71661 6.20078 7.40336 5.91632 7.90971 5.40997C8.41606 4.90362 8.70052 4.21687 8.70052 3.50078C8.70052 2.7847 8.41606 2.09794 7.90971 1.59159C7.40336 1.08524 6.71661 0.800781 6.00052 0.800781C5.28444 0.800781 4.59768 1.08524 4.09133 1.59159C3.58498 2.09794 3.30052 2.7847 3.30052 3.50078C3.30052 4.21687 3.58498 4.90362 4.09133 5.40997C4.59768 5.91632 5.28444 6.20078 6.00052 6.20078ZM0.119021 12.0445C0.0354697 12.2678 0.0262516 12.5121 0.092738 12.7411C0.159224 12.9701 0.297862 13.1714 0.488021 13.3153C2.06422 14.5402 4.0043 15.2038 6.00052 15.2008C8.07952 15.2008 9.99472 14.4952 11.5184 13.3108C11.9054 13.0111 12.062 12.4981 11.8856 12.0418C11.4286 10.852 10.6216 9.82876 9.5711 9.10708C8.52058 8.38541 7.27592 7.99924 6.00139 7.99953C4.72687 7.99982 3.48239 8.38657 2.4322 9.10872C1.382 9.83087 0.575463 10.8545 0.119021 12.0445Z" fill="black" fill-opacity="0.9"/>
</svg>
