<svg width="80" height="78" viewBox="0 0 80 78" fill="none" xmlns="http://www.w3.org/2000/svg">
<g clip-path="url(#clip0_2140_1381)">
<path d="M41.2197 35.6185C44.5732 34.6464 47.0383 33.6312 46.3147 31.1347C45.5796 28.5987 43.1106 29.0566 39.7157 30.0406L36.1553 31.0727L37.6593 36.6505L41.2197 35.6185Z" fill="black"/>
<path fill-rule="evenodd" clip-rule="evenodd" d="M31.561 11.3562C16.2416 15.7967 7.4225 31.8153 11.863 47.1347C16.3035 62.4541 32.3221 71.2732 47.6415 66.8327C62.9609 62.3922 71.78 46.3736 67.3395 31.0542C62.899 15.7348 46.8804 6.91572 31.561 11.3562ZM43.3915 56.0371L37.5955 57.7172L35.8834 52.1997L31.6191 53.4357L30.0111 47.8881L34.2753 46.652L33.4713 43.8782L29.2071 45.1142L27.599 39.5666L31.8632 38.3306L28.7512 27.2051L38.1077 24.493C46.6764 22.0092 50.3128 24.1768 51.8635 29.5264C53.3796 34.757 51.5006 38.6522 42.8278 41.1661L39.2673 42.1981L40.0714 44.972L47.896 42.7039L49.5041 48.2515L41.6794 50.5196L43.3915 56.0371Z" fill="black"/>
</g>
<defs>
<clipPath id="clip0_2140_1381">
<rect width="63.5361" height="62.3809" fill="white" transform="translate(0.960449 17.8203) rotate(-16.1649)"/>
</clipPath>
</defs>
</svg>
