<svg width="20" height="20" viewBox="0 0 20 20" fill="none" xmlns="http://www.w3.org/2000/svg">
<path d="M10 0.375C4.68528 0.375 0.375 4.68528 0.375 10C0.375 15.3147 4.68528 19.625 10 19.625C15.3147 19.625 19.625 15.3147 19.625 10C19.625 4.68528 15.3147 0.375 10 0.375ZM10.6236 14.5488V15.4402H9.36819V14.5739C8.57722 14.4945 7.73606 14.2099 7.12522 13.7537L7.74878 12.1969C8.35962 12.6572 9.109 12.992 9.8955 12.992C10.791 12.992 11.2052 12.5568 11.2052 11.8831C11.2052 11.2846 10.6528 11.0086 9.84497 10.5483C8.83228 9.97491 7.23797 9.48953 7.23797 7.74019C7.23797 6.46384 8.19222 5.677 9.36819 5.46353V4.55947H10.6236V5.42159C11.3392 5.48862 11.9752 5.68525 12.5025 6.08262L12.0381 7.72713C11.4523 7.24175 10.8913 7.04066 10.0419 7.04066C9.318 7.04066 8.81991 7.29159 8.81991 7.68106C8.81991 8.21662 9.38056 8.48887 10.3307 9.00347C11.8415 9.81128 12.8751 10.5727 12.8751 11.9704C12.8748 13.5111 12.0254 14.3354 10.6236 14.5488Z" fill="black"/>
</svg>
