<svg width="18" height="18" viewBox="0 0 18 18" fill="none" xmlns="http://www.w3.org/2000/svg">
<g clip-path="url(#clip0_2140_1502)">
<path d="M8.99993 0C6.51822 0 4.5 2.01822 4.5 4.49993C4.5 6.98164 6.51822 8.99986 8.99993 8.99986C11.4816 8.99986 13.4999 6.98164 13.4999 4.49993C13.4999 2.01822 11.4816 0 8.99993 0ZM8.99993 6.74989C7.75907 6.74989 6.74996 5.74079 6.74996 4.49993C6.74996 3.25907 7.75907 2.24996 8.99993 2.24996C10.2408 2.24996 11.2499 3.25907 11.2499 4.49993C11.2499 5.74079 10.2408 6.74989 8.99993 6.74989Z" fill="white"/>
<path d="M14.9667 8.87482C14.5268 8.43495 13.8158 8.43495 13.376 8.87482C10.964 11.2868 7.03782 11.2868 4.62473 8.87482C4.18486 8.43495 3.47387 8.43495 3.034 8.87482C2.59413 9.31469 2.59413 10.0257 3.034 10.4667C4.43348 11.8662 6.20758 12.6638 8.0368 12.8719L4.82947 16.0792C4.38961 16.5191 4.38961 17.2301 4.82947 17.6699C5.26934 18.1098 5.98033 18.1098 6.4202 17.6699L8.99979 15.0904L11.5794 17.6699C11.7987 17.8893 12.0867 17.9996 12.3747 17.9996C12.6627 17.9996 12.9507 17.8893 13.1701 17.6699C13.61 17.2301 13.61 16.5191 13.1701 16.0792L9.96277 12.8719C11.792 12.6638 13.5661 11.8662 14.9656 10.4667C15.4054 10.0268 15.4054 9.31469 14.9667 8.87482Z" fill="white"/>
</g>
<defs>
<clipPath id="clip0_2140_1502">
<rect width="18" height="18" fill="white"/>
</clipPath>
</defs>
</svg>
