<svg width="18" height="12" viewBox="0 0 18 12" fill="none" xmlns="http://www.w3.org/2000/svg">
<path fill-rule="evenodd" clip-rule="evenodd" d="M2.64437 0.789062H0.675168C0.112534 0.789062 0 1.04729 0 1.33194C0 1.84044 0.667608 4.36228 3.10849 7.69762C4.73574 9.97538 7.02838 11.2101 9.11463 11.2101C10.3664 11.2101 10.5212 10.9359 10.5212 10.4635V8.74197C10.5212 8.19349 10.6398 8.08402 11.0361 8.08402C11.3282 8.08402 11.8289 8.2264 12.9972 9.32462C14.3324 10.6262 14.5525 11.2101 15.3035 11.2101H17.2727C17.8354 11.2101 18.1167 10.9359 17.9544 10.3947C17.7768 9.85532 17.1394 9.0727 16.2935 8.14506C15.8345 7.61628 15.146 7.04685 14.9374 6.76208C14.6454 6.39603 14.7288 6.23329 14.9374 5.90794C14.9374 5.90794 17.3366 2.61324 17.5869 1.49473C17.7121 1.08793 17.5869 0.789062 16.9914 0.789062H15.0222C14.5215 0.789062 14.2907 1.04729 14.1655 1.33194C14.1655 1.33194 13.1641 3.71145 11.7455 5.25712C11.2865 5.70451 11.0779 5.84689 10.8275 5.84689C10.7023 5.84689 10.5212 5.70451 10.5212 5.29781V1.49473C10.5212 1.00659 10.3759 0.789062 9.95855 0.789062H6.86407C6.55121 0.789062 6.363 1.01558 6.363 1.23031C6.363 1.69301 7.07231 1.79974 7.14543 3.10133V5.92829C7.14543 6.54807 7.03057 6.66045 6.78026 6.66045C6.11268 6.66045 4.4888 4.2703 3.52569 1.53537C3.33697 1.00379 3.14764 0.789062 2.64437 0.789062V0.789062Z" fill="white"/>
</svg>
