<svg width="18" height="18" viewBox="0 0 18 18" fill="none" xmlns="http://www.w3.org/2000/svg">
<path d="M9 3C3.64902 3 0.192593 8.52671 0.130078 8.62734C0.045932 8.73334 9.09736e-05 8.86467 0 9C0.000106442 9.1161 0.033894 9.22967 0.0972656 9.32695C0.0980427 9.32813 0.098824 9.3293 0.0996094 9.33047C0.109926 9.35176 3.0113 15 9 15C14.9633 15 17.8604 9.40724 17.8957 9.33867C17.8981 9.33479 17.9004 9.33089 17.9027 9.32695C17.9661 9.22967 17.9999 9.1161 18 9C18 8.86521 17.9546 8.73435 17.8711 8.62852C17.8707 8.62812 17.8703 8.62773 17.8699 8.62734C17.8074 8.52671 14.351 3 9 3ZM9 4.8C11.3196 4.8 13.2 6.6804 13.2 9C13.2 11.3196 11.3196 13.2 9 13.2C6.6804 13.2 4.8 11.3196 4.8 9C4.8 6.6804 6.6804 4.8 9 4.8ZM9 7.2C8.52261 7.2 8.06477 7.38964 7.72721 7.72721C7.38964 8.06477 7.2 8.52261 7.2 9C7.2 9.47739 7.38964 9.93523 7.72721 10.2728C8.06477 10.6104 8.52261 10.8 9 10.8C9.47739 10.8 9.93523 10.6104 10.2728 10.2728C10.6104 9.93523 10.8 9.47739 10.8 9C10.8 8.52261 10.6104 8.06477 10.2728 7.72721C9.93523 7.38964 9.47739 7.2 9 7.2Z" fill="black" fill-opacity="0.4"/>
</svg>
