<svg width="44" height="44" viewBox="0 0 44 44" fill="none" xmlns="http://www.w3.org/2000/svg">
<path d="M0 8C0 3.58172 3.58172 0 8 0H36C40.4183 0 44 3.58172 44 8V36C44 40.4183 40.4183 44 36 44H8C3.58172 44 0 40.4183 0 36V8Z" fill="black"/>
<path d="M24.857 9.48296C23.6963 7.50568 20.8149 7.50568 19.6542 9.48295L15.0131 17.3892C14.5432 18.1895 14.8856 19.2169 15.7438 19.5824C19.9013 21.353 24.6099 21.353 28.7674 19.5824C29.6257 19.2169 29.968 18.1895 29.4982 17.3892L24.857 9.48296Z" fill="#C3EB0E"/>
<path d="M33.9804 34C36.302 34.0041 37.7539 31.5112 36.5896 29.5202L31.8956 21.4939C31.4321 20.7013 30.3762 20.4846 29.6333 21.0295C25.9719 23.7153 23.6 27.7876 23.0843 32.2737C22.9796 33.1839 23.6969 33.982 24.6211 33.9836L33.9804 34Z" fill="#C3EB0E"/>
<path d="M10.0196 34C7.69797 34.0041 6.24605 31.5112 7.41043 29.5202L12.1044 21.4939C12.5679 20.7013 13.6238 20.4846 14.3667 21.0295C18.0281 23.7153 20.4 27.7876 20.9157 32.2737C21.0204 33.1839 20.3031 33.982 19.3789 33.9836L10.0196 34Z" fill="#C3EB0E"/>
</svg>
