<svg width="46" height="46" viewBox="0 0 46 46" fill="none" xmlns="http://www.w3.org/2000/svg">
<path d="M1 9C1 4.58172 4.58172 1 9 1H37C41.4183 1 45 4.58172 45 9V37C45 41.4183 41.4183 45 37 45H9C4.58172 45 1 41.4183 1 37V9Z" fill="#8475CF"/>
<path d="M9 0.5C4.30558 0.5 0.5 4.30558 0.5 9V37C0.5 41.6944 4.30558 45.5 9 45.5H37C41.6944 45.5 45.5 41.6944 45.5 37V9C45.5 4.30558 41.6944 0.5 37 0.5H9Z" stroke="black" stroke-opacity="0.1"/>
<path d="M21.8687 9.39844V12.6457V12.9335C20.9407 13.0587 19.8722 13.2688 18.7676 13.6507C17.5594 12.4832 15.1939 10.5318 12.8021 10.5318C12.8021 10.5318 13.0631 14.4729 14.5486 16.681C12.432 19.7048 10.5 25.2983 10.5 25.2983C10.5 25.2983 15.365 26.2762 16.751 27.762C18.15 29.2596 17.4681 33.6159 21.8687 34.2477V36.5984H24.1354V33.1276C27.0864 32.8007 29.2336 31.2224 30.5835 29.2561C31.906 27.3296 32.4948 25.119 32.8258 23.1534C33.4368 23.1523 34.0764 23.2464 34.6143 23.0405C35.4992 22.7018 36.3028 22.0132 36.5645 21.0195C36.8407 19.9697 36.4284 18.9295 35.7609 18.1773C35.0935 17.4252 34.1503 16.8697 33.0449 16.5792C32.5932 16.4603 32.1624 16.451 31.7323 16.4375C31.2729 15.9511 30.7405 15.5507 30.185 15.1868C30.5157 14.2353 30.9354 12.7253 30.9354 10.9214C30.9354 9.78689 30.5721 9.39844 30.2559 9.39844C29.452 9.39844 29.1613 12.1934 26.4043 13.5134C25.5071 13.2558 24.7256 13.0808 24.1354 12.9711V9.39844H21.8687ZM24.1354 15.3374C24.7184 15.4404 25.0027 15.4478 26.0236 15.7557C27.7337 16.2716 29.6266 17.1783 30.4219 18.2128L30.7805 18.6798L31.3693 18.6533C31.7158 18.6377 32.0875 18.6707 32.4672 18.7706H32.4694C33.1796 18.9572 33.751 19.3261 34.0654 19.6803C34.3797 20.0346 34.4153 20.2835 34.373 20.444C34.3333 20.595 34.2037 20.7714 33.8042 20.9243C33.4047 21.0773 32.7852 21.138 32.1197 21.004L30.9288 20.765L30.7716 21.9691C30.5223 23.8919 29.9151 26.2267 28.7152 27.9745C27.711 29.4373 26.2122 30.3485 24.1354 30.6639V28.6651C24.2856 28.6672 24.4347 28.6395 24.5741 28.5835C24.7134 28.5275 24.8403 28.4443 24.9472 28.3389C25.0542 28.2334 25.1391 28.1078 25.1971 27.9692C25.255 27.8307 25.2849 27.682 25.2849 27.5318C25.2849 27.3816 25.255 27.2329 25.1971 27.0943C25.1391 26.9558 25.0542 26.8301 24.9472 26.7247C24.8403 26.6192 24.7134 26.5361 24.5741 26.4801C24.4347 26.4241 24.2856 26.3963 24.1354 26.3984V15.3374ZM17.9995 20.2625L21.2047 23.4677C20.7944 23.878 20.2277 24.1318 19.6021 24.1318C18.3498 24.1318 17.3354 23.1174 17.3354 21.8651C17.3354 21.2395 17.5892 20.6728 17.9995 20.2625ZM26.4021 21.8651C26.1015 21.8651 25.8132 21.9845 25.6007 22.1971C25.3882 22.4096 25.2688 22.6979 25.2688 22.9984C25.2688 23.299 25.3882 23.5873 25.6007 23.7998C25.8132 24.0124 26.1015 24.1318 26.4021 24.1318C26.7027 24.1318 26.9909 24.0124 27.2035 23.7998C27.416 23.5873 27.5354 23.299 27.5354 22.9984C27.5354 22.6979 27.416 22.4096 27.2035 22.1971C26.9909 21.9845 26.7027 21.8651 26.4021 21.8651Z" fill="white"/>
</svg>
